<svg width="24" height="24" viewBox="0 0 24 24" fill="none" xmlns="http://www.w3.org/2000/svg">
<g id="icon-arrow-right-circle-mono">
<path id="Vector" d="M1 12C1 18.1 5.9 23 12 23C18.1 23 23 18.1 23 12C23 5.9 18.1 1 12 1C5.9 1 1 5.9 1 12ZM6.5 12C6.5 11.4 6.9 11 7.5 11H14.1L11.8 8.7C11.4 8.3 11.4 7.7 11.8 7.3C12.2 6.9 12.8 6.9 13.2 7.3L17.2 11.3C17.6 11.7 17.6 12.3 17.2 12.7L13.2 16.7C13 16.9 12.8 17 12.5 17C12.2 17 12 16.9 11.8 16.7C11.4 16.3 11.4 15.7 11.8 15.3L14.1 13H7.5C7 13 6.5 12.6 6.5 12Z" fill="currentColor"/>
</g>
</svg>
