<svg width="24" height="24" viewBox="0 0 24 24" fill="none" xmlns="http://www.w3.org/2000/svg">
<g id="icon-arrow-up-limit-mono">
<path id="Vector" fill-rule="evenodd" clip-rule="evenodd" d="M12.7661 6.6041C12.6116 6.45156 12.4157 6.34778 12.2027 6.30565C11.9897 6.26352 11.769 6.28488 11.5681 6.3671C11.4345 6.42211 11.3129 6.50261 11.2101 6.6041L5.50409 12.3101C5.30222 12.5172 5.19005 12.7955 5.19186 13.0847C5.19367 13.374 5.30932 13.6508 5.51377 13.8554C5.71822 14.06 5.99502 14.1758 6.28424 14.1778C6.57347 14.1798 6.85184 14.0678 7.05909 13.8661L10.8881 10.0361V21.3811C10.8881 21.6728 11.004 21.9526 11.2103 22.1589C11.4166 22.3652 11.6964 22.4811 11.9881 22.4811C12.2798 22.4811 12.5596 22.3652 12.7659 22.1589C12.9722 21.9526 13.0881 21.6728 13.0881 21.3811V10.0381L16.9171 13.8671C17.1321 14.0821 17.4131 14.1891 17.6951 14.1891C17.9127 14.1892 18.1255 14.1247 18.3064 14.0038C18.4874 13.883 18.6284 13.7111 18.7117 13.5101C18.795 13.3091 18.8168 13.0878 18.7743 12.8744C18.7318 12.661 18.627 12.4649 18.4731 12.3111L12.7661 6.6041ZM21.3801 2.1001H2.59609C2.30436 2.1001 2.02457 2.21599 1.81828 2.42228C1.61199 2.62857 1.49609 2.90836 1.49609 3.2001C1.49609 3.49184 1.61199 3.77163 1.81828 3.97792C2.02457 4.18421 2.30436 4.3001 2.59609 4.3001H21.3811C21.6728 4.3001 21.9526 4.18421 22.1589 3.97792C22.3652 3.77163 22.4811 3.49184 22.4811 3.2001C22.4811 2.90836 22.3652 2.62857 22.1589 2.42228C21.9526 2.21599 21.6728 2.1001 21.3811 2.1001" fill="#8B95A1"/>
</g>
</svg>
