<svg width="24" height="24" viewBox="0 0 24 24" fill="none" xmlns="http://www.w3.org/2000/svg">
<g id="icon-arrow-diagonal-mono">
<path id="Vector" fill-rule="evenodd" clip-rule="evenodd" d="M19.9826 4.61213C19.8716 4.34313 19.6566 4.12913 19.3876 4.01713C19.2536 3.96213 19.1106 3.93213 18.9676 3.93213H10.8966C10.2896 3.93213 9.79662 4.42513 9.79662 5.03313C9.79662 5.64013 10.2896 6.13313 10.8966 6.13313H16.3116L6.13262 16.3121V10.8971C6.13262 10.2891 5.63962 9.79713 5.03262 9.79713C4.42462 9.79713 3.93262 10.2891 3.93262 10.8971V18.9681C3.93262 19.1111 3.96162 19.2541 4.01762 19.3881C4.12862 19.6571 4.34262 19.8711 4.61162 19.9831C4.74662 20.0381 4.88862 20.0681 5.03262 20.0681H13.1036C13.7106 20.0681 14.2036 19.5751 14.2036 18.9681C14.2036 18.3601 13.7106 17.8671 13.1036 17.8671H7.68862L17.8676 7.68813V13.1031C17.8676 13.7111 18.3596 14.2031 18.9676 14.2031C19.5746 14.2031 20.0676 13.7111 20.0676 13.1031V5.03313C20.0676 4.88913 20.0386 4.74713 19.9826 4.61213Z" fill="#8B95A1"/>
</g>
</svg>
