<svg width="24" height="24" viewBox="0 0 24 24" fill="none" xmlns="http://www.w3.org/2000/svg">
<g id="icon-arrow-left-circle-mono">
<path id="Vector" d="M12 1C5.9 1 1 5.9 1 12C1 18.1 5.9 23 12 23C18.1 23 23 18.1 23 12C23 5.9 18.1 1 12 1ZM16.5 13H9.9L12.2 15.3C12.6 15.7 12.6 16.3 12.2 16.7C12 16.9 11.7 17 11.5 17C11.3 17 11 16.9 10.8 16.7L6.8 12.7C6.4 12.3 6.4 11.7 6.8 11.3L10.8 7.3C11.2 6.9 11.8 6.9 12.2 7.3C12.6 7.7 12.6 8.3 12.2 8.7L9.9 11H16.5C17.1 11 17.5 11.4 17.5 12C17.5 12.6 17 13 16.5 13Z" fill="currentColor"/>
</g>
</svg>
