<svg width="24" height="24" viewBox="0 0 24 24" fill="none" xmlns="http://www.w3.org/2000/svg">
<g id="icon-arrow-left-right-mono">
<path id="Vector" fill-rule="evenodd" clip-rule="evenodd" d="M3.95118 7.75801H17.3932L14.8992 10.252C14.7079 10.4613 14.6048 10.7363 14.6112 11.0197C14.6176 11.3031 14.7331 11.5732 14.9336 11.7736C15.1341 11.974 15.4043 12.0893 15.6877 12.0955C15.9711 12.1018 16.246 11.9984 16.4552 11.807L20.8262 7.43501C20.9292 7.33334 21.011 7.2122 21.0669 7.07865C21.1227 6.94509 21.1515 6.80177 21.1515 6.65701C21.1515 6.51225 21.1227 6.36894 21.0669 6.23538C21.011 6.10182 20.9292 5.98069 20.8262 5.87901L16.4552 1.50901C16.3536 1.40463 16.2322 1.32146 16.0982 1.26435C15.9642 1.20723 15.8202 1.1773 15.6745 1.1763C15.5289 1.17529 15.3844 1.20323 15.2497 1.25849C15.1149 1.31375 14.9924 1.39523 14.8894 1.4982C14.7863 1.60118 14.7048 1.72359 14.6494 1.85834C14.5941 1.99309 14.5661 2.13749 14.567 2.28316C14.5679 2.42883 14.5977 2.57287 14.6547 2.70691C14.7118 2.84096 14.7949 2.96234 14.8992 3.06401L17.3932 5.55801H3.95118C3.65944 5.55801 3.37965 5.67391 3.17336 5.8802C2.96707 6.08649 2.85118 6.36628 2.85118 6.65801C2.85118 6.94975 2.96707 7.22954 3.17336 7.43583C3.37965 7.64212 3.65944 7.75801 3.95118 7.75801ZM20.0492 16.241H6.60718L9.10018 13.747C9.30192 13.5398 9.41391 13.2614 9.41191 12.9722C9.40992 12.6829 9.29409 12.4061 9.08951 12.2017C8.88493 11.9972 8.60805 11.8816 8.31883 11.8798C8.0296 11.878 7.7513 11.9901 7.54418 12.192L3.17218 16.563C3.0695 16.6649 2.988 16.7861 2.93239 16.9196C2.87678 17.0532 2.84814 17.1964 2.84814 17.341C2.84814 17.4857 2.87678 17.6289 2.93239 17.7624C2.988 17.8959 3.0695 18.0171 3.17218 18.119L7.54418 22.491C7.64635 22.5932 7.76764 22.6742 7.90113 22.7295C8.03462 22.7848 8.17769 22.8133 8.32218 22.8133C8.46667 22.8133 8.60974 22.7848 8.74323 22.7295C8.87672 22.6742 8.99801 22.5932 9.10018 22.491C9.20235 22.3888 9.28339 22.2676 9.33868 22.1341C9.39398 22.0006 9.42244 21.8575 9.42244 21.713C9.42244 21.5685 9.39398 21.4255 9.33868 21.292C9.28339 21.1585 9.20235 21.0372 9.10018 20.935L6.60618 18.441H20.0482C20.3399 18.441 20.6197 18.3251 20.826 18.1188C21.0323 17.9125 21.1482 17.6328 21.1482 17.341C21.1482 17.0493 21.0323 16.7695 20.826 16.5632C20.6197 16.3569 20.3399 16.241 20.0482 16.241" fill="currentColor"/>
</g>
</svg>
