<svg width="24" height="24" viewBox="0 0 24 24" fill="none" xmlns="http://www.w3.org/2000/svg">
<g id="icon-arrow-right-small-mono">
<path id="Vector" fill-rule="evenodd" clip-rule="evenodd" d="M8.6248 20.0999C8.2798 20.0999 7.9348 19.9649 7.6648 19.7099C7.41291 19.4569 7.27148 19.1145 7.27148 18.7574C7.27148 18.4004 7.41291 18.0579 7.6648 17.8049L13.4698 11.9999L7.6648 6.20994C7.41291 5.95694 7.27148 5.61445 7.27148 5.25744C7.27148 4.90042 7.41291 4.55794 7.6648 4.30494C7.9178 4.05304 8.26028 3.91162 8.6173 3.91162C8.97432 3.91162 9.3168 4.05304 9.5698 4.30494L16.3198 11.0549C16.5717 11.3079 16.7131 11.6504 16.7131 12.0074C16.7131 12.3645 16.5717 12.7069 16.3198 12.9599L9.5698 19.7099C9.3148 19.9649 8.9698 20.0999 8.6248 20.0999Z" fill="#8B95A1"/>
</g>
</svg>
