<svg width="24" height="24" viewBox="0 0 24 24" fill="none" xmlns="http://www.w3.org/2000/svg">
<g id="icon-arrow-back-android-mono">
<path id="Vector" fill-rule="evenodd" clip-rule="evenodd" d="M20.9659 10.7999H6.92988L12.3809 5.34887C12.4938 5.23777 12.5836 5.10542 12.6451 4.95944C12.7066 4.81346 12.7386 4.65675 12.7393 4.49834C12.7399 4.33994 12.7092 4.18297 12.6489 4.03649C12.5886 3.89002 12.4998 3.75694 12.3878 3.64493C12.2758 3.53292 12.1427 3.44419 11.9963 3.38387C11.8498 3.32355 11.6928 3.29282 11.5344 3.29347C11.376 3.29411 11.2193 3.32611 11.0733 3.38763C10.9273 3.44914 10.795 3.53895 10.6839 3.65187L3.18388 11.1519C3.18088 11.1539 3.17988 11.1579 3.17688 11.1609C3.01236 11.3288 2.90078 11.5413 2.85598 11.772C2.81118 12.0028 2.83514 12.2416 2.92488 12.4589C2.98488 12.6019 3.06988 12.7289 3.17688 12.8389L3.18388 12.8489L10.6839 20.3489C10.9189 20.5829 11.2259 20.6989 11.5319 20.6989C11.7691 20.6989 12.0011 20.6285 12.1984 20.4967C12.3957 20.3649 12.5495 20.1776 12.6403 19.9584C12.7312 19.7392 12.7551 19.498 12.7089 19.2653C12.6627 19.0326 12.5486 18.8187 12.3809 18.6509L6.93088 13.1999H20.9669C21.2851 13.1999 21.5904 13.0734 21.8154 12.8484C22.0405 12.6234 22.1669 12.3181 22.1669 11.9999C22.1669 11.6816 22.0405 11.3764 21.8154 11.1513C21.5904 10.9263 21.2851 10.7999 20.9669 10.7999" fill="currentColor"/>
</g>
</svg>
