<svg width="24" height="24" viewBox="0 0 24 24" fill="none" xmlns="http://www.w3.org/2000/svg">
<g id="icon-arrow-solid-up-down-mono">
<path id="Vector" fill-rule="evenodd" clip-rule="evenodd" d="M12.7258 0.765919L20.2008 8.65592C20.268 8.72687 20.313 8.81598 20.3302 8.91224C20.3473 9.00849 20.3359 9.10766 20.2972 9.19747C20.2586 9.28728 20.1945 9.3638 20.1128 9.41756C20.0312 9.47131 19.9355 9.49995 19.8378 9.49992H4.16177C4.064 9.49995 3.96837 9.47131 3.8867 9.41756C3.80504 9.3638 3.74093 9.28728 3.7023 9.19747C3.66367 9.10766 3.65222 9.00849 3.66937 8.91224C3.68651 8.81598 3.7315 8.72687 3.79877 8.65592L11.2738 0.765919C11.3672 0.667268 11.4798 0.588697 11.6046 0.535002C11.7294 0.481306 11.8639 0.453613 11.9998 0.453613C12.1356 0.453613 12.2701 0.481306 12.3949 0.535002C12.5198 0.588697 12.6323 0.667268 12.7258 0.765919ZM12.7258 23.2339L20.2008 15.3439C20.268 15.273 20.313 15.1839 20.3302 15.0876C20.3473 14.9913 20.3359 14.8922 20.2972 14.8024C20.2586 14.7126 20.1945 14.636 20.1128 14.5823C20.0312 14.5285 19.9355 14.4999 19.8378 14.4999H4.16177C4.064 14.4999 3.96837 14.5285 3.8867 14.5823C3.80504 14.636 3.74093 14.7126 3.7023 14.8024C3.66367 14.8922 3.65222 14.9913 3.66937 15.0876C3.68651 15.1839 3.7315 15.273 3.79877 15.3439L11.2738 23.2339C11.3672 23.3326 11.4798 23.4111 11.6046 23.4648C11.7294 23.5185 11.8639 23.5462 11.9998 23.5462C12.1356 23.5462 12.2701 23.5185 12.3949 23.4648C12.5198 23.4111 12.6323 23.3326 12.7258 23.2339Z" fill="currentColor"/>
</g>
</svg>
