<svg width="24" height="24" viewBox="0 0 24 24" fill="none" xmlns="http://www.w3.org/2000/svg">
<g id="icon-arrow-right-android-mono">
<path id="Vector" fill-rule="evenodd" clip-rule="evenodd" d="M3.8675 10.7996H17.9035L12.4525 5.34855C11.9835 4.87955 11.9835 4.11955 12.4525 3.65155C12.9215 3.18255 13.6805 3.18255 14.1495 3.65155L21.6495 11.1516C21.6525 11.1536 21.6535 11.1576 21.6565 11.1606C21.7635 11.2696 21.8495 11.3986 21.9085 11.5406C22.0305 11.8346 22.0305 12.1646 21.9085 12.4586C21.8495 12.6016 21.7635 12.7296 21.6565 12.8386C21.6535 12.8416 21.6525 12.8456 21.6495 12.8486L14.1495 20.3486C13.9155 20.5826 13.6085 20.6996 13.3015 20.6996C12.9935 20.6996 12.6865 20.5826 12.4525 20.3486C11.9835 19.8796 11.9835 19.1196 12.4525 18.6516L17.9035 13.1996H3.8675C3.2045 13.1996 2.6675 12.6626 2.6675 11.9996C2.6675 11.3376 3.2045 10.7996 3.8675 10.7996Z" fill="#8B95A1"/>
</g>
</svg>
