<svg width="24" height="24" viewBox="0 0 24 24" fill="none" xmlns="http://www.w3.org/2000/svg">
<g id="icon-basketball-mono">
<g id="Group">
<path id="Vector" d="M11.3003 11.3001V1.03613C8.59933 1.20613 6.16433 2.34313 4.34033 4.11513C6.20833 5.98013 7.42633 8.49813 7.60233 11.3001H11.3003Z" fill="currentColor"/>
<path id="Vector_2" d="M6.20216 11.3003C6.03016 8.90934 4.98816 6.76034 3.40016 5.15234C2.03816 6.86034 1.18216 8.98234 1.03516 11.3003H6.20216Z" fill="currentColor"/>
<path id="Vector_3" d="M12.7002 11.3001H16.3982C16.5732 8.49913 17.7922 5.98113 19.6602 4.11513C17.8362 2.34313 15.4012 1.20613 12.7002 1.03613V11.3001Z" fill="currentColor"/>
<path id="Vector_4" d="M22.9653 11.3003C22.8183 8.98234 21.9623 6.86034 20.6003 5.15234C19.0123 6.75934 17.9703 8.90834 17.7993 11.2993H22.9653V11.3003Z" fill="currentColor"/>
<path id="Vector_5" d="M16.3982 12.7002H12.7002V22.9652C15.4012 22.7952 17.8362 21.6582 19.6602 19.8852C17.7922 18.0192 16.5742 15.5012 16.3982 12.7002Z" fill="currentColor"/>
<path id="Vector_6" d="M1.03516 12.7002C1.18116 15.0172 2.03816 17.1392 3.40016 18.8472C4.98816 17.2402 6.03016 15.0912 6.20116 12.7002H1.03516Z" fill="currentColor"/>
<path id="Vector_7" d="M17.7983 12.7002C17.9693 15.0912 19.0113 17.2402 20.5993 18.8472C21.9613 17.1392 22.8183 15.0172 22.9643 12.7002H17.7983Z" fill="currentColor"/>
<path id="Vector_8" d="M11.3003 12.7002H7.60233C7.42733 15.5012 6.20833 18.0192 4.34033 19.8852C6.16433 21.6572 8.59933 22.7942 11.3003 22.9652V12.7002Z" fill="currentColor"/>
</g>
</g>
</svg>
