<svg width="24" height="24" viewBox="0 0 24 24" fill="none" xmlns="http://www.w3.org/2000/svg">
<g id="icon-building-mono">
<path id="Vector" fill-rule="evenodd" clip-rule="evenodd" d="M7.09909 14.401H8.89909V12.601H7.09909V14.401ZM7.09909 10.65H8.89909V8.85H7.09909V10.65ZM7.09909 6.9H8.89909V5.1H7.09909V6.9ZM11.1001 14.401H12.9001V12.601H11.1001V14.401ZM11.1001 10.65H12.9001V8.85H11.1001V10.65ZM11.1001 6.9H12.9001V5.1H11.1001V6.9ZM15.1021 14.401H16.9021V12.601H15.1021V14.401ZM15.1021 10.65H16.9021V8.85H15.1021V10.65ZM15.1021 6.9H16.9021V5.1H15.1021V6.9ZM19.5031 1.5H4.49709C4.36569 1.49987 4.23554 1.52564 4.1141 1.57583C3.99266 1.62603 3.88231 1.69967 3.78934 1.79254C3.69638 1.88541 3.62263 1.9957 3.57231 2.11709C3.52199 2.23848 3.49609 2.36859 3.49609 2.5V21.388C3.49609 21.7063 3.62252 22.0115 3.84757 22.2365C4.07261 22.4616 4.37783 22.588 4.69609 22.588H10.0001V18.835C10.0001 18.5698 10.1055 18.3154 10.293 18.1279C10.4805 17.9404 10.7349 17.835 11.0001 17.835H13.0001C13.2653 17.835 13.5197 17.9404 13.7072 18.1279C13.8947 18.3154 14.0001 18.5698 14.0001 18.835V22.588H19.3031C19.6214 22.588 19.9266 22.4616 20.1516 22.2365C20.3767 22.0115 20.5031 21.7063 20.5031 21.388V2.5C20.5031 2.23478 20.3977 1.98043 20.2102 1.79289C20.0227 1.60536 19.7683 1.5 19.5031 1.5Z" fill="currentColor"/>
</g>
</svg>
