<svg width="24" height="24" viewBox="0 0 24 24" fill="none" xmlns="http://www.w3.org/2000/svg">
<g id="icon-calendar-check-mono">
<path id="Vector" fill-rule="evenodd" clip-rule="evenodd" d="M17.2068 10.4148L11.6228 15.9988C11.4353 16.1863 11.181 16.2916 10.9158 16.2916C10.6506 16.2916 10.3963 16.1863 10.2088 15.9988L6.7928 12.5818C6.69996 12.489 6.62631 12.3787 6.57607 12.2574C6.52582 12.1361 6.49996 12.0061 6.49996 11.8748C6.49996 11.7435 6.52582 11.6135 6.57607 11.4922C6.62631 11.3709 6.69996 11.2606 6.7928 11.1678C6.88565 11.075 6.99587 11.0013 7.11718 10.9511C7.23849 10.9008 7.3685 10.875 7.4998 10.875C7.63111 10.875 7.76112 10.9008 7.88243 10.9511C8.00374 11.0013 8.11396 11.075 8.2068 11.1678L10.9158 13.8768L15.7928 9.0008C15.8856 8.90796 15.9959 8.83431 16.1172 8.78406C16.2385 8.73382 16.3685 8.70796 16.4998 8.70796C16.6311 8.70796 16.7611 8.73382 16.8824 8.78406C17.0037 8.83431 17.114 8.90796 17.2068 9.0008C17.2997 9.09365 17.3733 9.20387 17.4235 9.32518C17.4738 9.44649 17.4997 9.5765 17.4997 9.7078C17.4997 9.83911 17.4738 9.96912 17.4235 10.0904C17.3733 10.2117 17.2997 10.322 17.2068 10.4148ZM19.6998 2.7998H18.0698V1.7998C18.0698 1.53459 17.9644 1.28023 17.7769 1.0927C17.5894 0.905162 17.335 0.799805 17.0698 0.799805C16.8046 0.799805 16.5502 0.905162 16.3627 1.0927C16.1752 1.28023 16.0698 1.53459 16.0698 1.7998V2.7998H7.9298V1.7998C7.9298 1.53459 7.82445 1.28023 7.63691 1.0927C7.44938 0.905162 7.19502 0.799805 6.9298 0.799805C6.66459 0.799805 6.41023 0.905162 6.2227 1.0927C6.03516 1.28023 5.9298 1.53459 5.9298 1.7998V2.7998H4.2998C3.76937 2.7998 3.26066 3.01052 2.88559 3.38559C2.51052 3.76066 2.2998 4.26937 2.2998 4.7998V20.1998C2.2998 20.7302 2.51052 21.2389 2.88559 21.614C3.26066 21.9891 3.76937 22.1998 4.2998 22.1998H19.6998C20.2302 22.1998 20.7389 21.9891 21.114 21.614C21.4891 21.2389 21.6998 20.7302 21.6998 20.1998V4.7998C21.6998 4.26937 21.4891 3.76066 21.114 3.38559C20.7389 3.01052 20.2302 2.7998 19.6998 2.7998Z" fill="#8B95A1"/>
</g>
</svg>
