<svg width="24" height="24" viewBox="0 0 24 24" fill="none" xmlns="http://www.w3.org/2000/svg">
<g id="icon-call-mono">
<path id="Vector" fill-rule="evenodd" clip-rule="evenodd" d="M22.3399 16.9132L18.3609 13.8332C18.1687 13.6849 17.9291 13.6118 17.6869 13.6274C17.4446 13.6431 17.2164 13.7464 17.0449 13.9182L14.9329 16.0312C14.7756 16.1901 14.5693 16.2913 14.3473 16.3183C14.1253 16.3454 13.9008 16.2967 13.7099 16.1802C13.0299 15.7632 11.8919 14.9552 10.4679 13.5302C9.04389 12.1072 8.23589 10.9682 7.81889 10.2892C7.70226 10.0985 7.6536 9.87396 7.68083 9.65208C7.70807 9.4302 7.8096 9.22407 7.96889 9.06723L10.0809 6.95423C10.2529 6.78283 10.3564 6.55448 10.3719 6.31213C10.3873 6.06977 10.3137 5.83012 10.1649 5.63823L7.08589 1.65823C6.38589 0.755233 5.06589 0.612233 4.20589 1.36723C3.07289 2.36123 1.71189 3.85023 1.31589 5.52123C0.598894 8.53123 1.73189 12.3082 6.71189 17.2882C11.6919 22.2672 15.4689 23.4012 18.4779 22.6852C20.1489 22.2872 21.6389 20.9252 22.6329 19.7932C23.3869 18.9332 23.2439 17.6132 22.3399 16.9132Z" fill="#8B95A1"/>
</g>
</svg>
