<svg width="24" height="24" viewBox="0 0 24 24" fill="none" xmlns="http://www.w3.org/2000/svg">
<g id="icon-call-slash-mono" clip-path="url(#clip0_66_2259)">
<path id="Vector" fill-rule="evenodd" clip-rule="evenodd" d="M8.46011 11.2311C8.23372 10.9262 8.0202 10.6119 7.82011 10.2891C7.70357 10.0982 7.65497 9.87353 7.6822 9.65153C7.70943 9.42952 7.81089 9.22323 7.97011 9.06614L10.0821 6.95414C10.2542 6.78257 10.3577 6.55405 10.3732 6.31153C10.3887 6.06901 10.315 5.82919 10.1661 5.63714L7.08611 1.66014C6.38611 0.75514 5.06511 0.61314 4.20611 1.36714C3.07411 2.36114 1.71311 3.85114 1.31511 5.52214C0.712107 8.06014 1.43311 11.1461 4.65511 15.0361L8.46111 11.2321L8.46011 11.2311ZM22.3401 16.9131L18.3621 13.8331C18.1699 13.6848 17.9303 13.6117 17.6881 13.6273C17.4458 13.643 17.2176 13.7464 17.0461 13.9181L14.9341 16.0311C14.7768 16.19 14.5705 16.2912 14.3485 16.3182C14.1266 16.3453 13.902 16.2966 13.7111 16.1801C13.1771 15.8521 12.3571 15.2781 11.3401 14.3581L20.8491 4.84814C21.0711 4.62248 21.195 4.31823 21.1937 4.00166C21.1924 3.6851 21.0661 3.38187 20.8422 3.15802C20.6184 2.93418 20.3151 2.80785 19.9986 2.80656C19.682 2.80527 19.3778 2.92912 19.1521 3.15114L1.15211 21.1511C0.926938 21.3762 0.800387 21.6814 0.800293 21.9998C0.800199 22.3181 0.926571 22.6235 1.15161 22.8486C1.37664 23.0738 1.68191 23.2004 2.00025 23.2005C2.3186 23.2005 2.62394 23.0742 2.84911 22.8491L7.57511 18.1221C12.1321 22.3921 15.6451 23.3591 18.4791 22.6851C20.1491 22.2871 21.6391 20.9251 22.6341 19.7931C23.3881 18.9331 23.2441 17.6131 22.3411 16.9131" fill="#8B95A1"/>
</g>
<defs>
<clipPath id="clip0_66_2259">
<rect width="24" height="24" fill="white"/>
</clipPath>
</defs>
</svg>
