<svg width="24" height="24" viewBox="0 0 24 24" fill="none" xmlns="http://www.w3.org/2000/svg">
<g id="icon-camera-mono">
<g id="Group">
<path id="Vector" fill-rule="evenodd" clip-rule="evenodd" d="M12.0002 18.2671C10.6094 18.2656 9.27595 17.7123 8.29248 16.7289C7.30901 15.7454 6.7558 14.412 6.75421 13.0211C6.75553 11.6301 7.30863 10.2965 8.29213 9.31277C9.27563 8.32909 10.6092 7.77574 12.0002 7.77415C13.3912 7.77574 14.7248 8.32909 15.7083 9.31277C16.6918 10.2965 17.2449 11.6301 17.2462 13.0211C17.2446 14.412 16.6914 15.7454 15.7079 16.7289C14.7245 17.7123 13.391 18.2656 12.0002 18.2671ZM20.1132 5.13615H17.1592L16.0462 2.96715C15.8697 2.62378 15.602 2.33571 15.2724 2.13459C14.9429 1.93348 14.5643 1.8271 14.1782 1.82715H9.76521C9.37154 1.8271 8.98579 1.93771 8.65196 2.14635C8.31813 2.35499 8.04967 2.65327 7.87721 3.00715L6.84121 5.13615H3.88721C3.5562 5.13602 3.2284 5.2011 2.92254 5.32769C2.61669 5.45427 2.33876 5.63987 2.10466 5.87389C1.87055 6.1079 1.68483 6.38575 1.55813 6.69156C1.43143 6.99736 1.36621 7.32513 1.36621 7.65615V19.2571C1.36621 19.5882 1.43143 19.9159 1.55813 20.2217C1.68483 20.5275 1.87055 20.8054 2.10466 21.0394C2.33876 21.2734 2.61669 21.459 2.92254 21.5856C3.2284 21.7122 3.5562 21.7773 3.88721 21.7771H20.1132C20.4442 21.7773 20.772 21.7122 21.0779 21.5856C21.3837 21.459 21.6617 21.2734 21.8958 21.0394C22.1299 20.8054 22.3156 20.5275 22.4423 20.2217C22.569 19.9159 22.6342 19.5882 22.6342 19.2571V7.65615C22.6342 7.32513 22.569 6.99736 22.4423 6.69156C22.3156 6.38575 22.1299 6.1079 21.8958 5.87389C21.6617 5.63987 21.3837 5.45427 21.0779 5.32769C20.772 5.2011 20.4442 5.13602 20.1132 5.13615Z" fill="currentColor"/>
<path id="Vector_2" fill-rule="evenodd" clip-rule="evenodd" d="M12 9.66406C11.1104 9.66512 10.2575 10.0191 9.62849 10.6482C8.99951 11.2774 8.64581 12.1304 8.64502 13.0201C8.64555 13.9098 8.99916 14.7629 9.6282 15.3922C10.2572 16.0214 11.1103 16.3753 12 16.3761C12.8897 16.3753 13.7428 16.0214 14.3718 15.3922C15.0009 14.7629 15.3545 13.9098 15.355 13.0201C15.3542 12.1304 15.0005 11.2774 14.3715 10.6482C13.7426 10.0191 12.8897 9.66512 12 9.66406Z" fill="currentColor"/>
</g>
</g>
</svg>
