<svg width="24" height="24" viewBox="0 0 24 24" fill="none" xmlns="http://www.w3.org/2000/svg">
<g id="icon-car-mono">
<path id="Vector" fill-rule="evenodd" clip-rule="evenodd" d="M17.6361 3.686C17.4788 3.33305 17.2227 3.03321 16.8986 2.82273C16.5746 2.61226 16.1965 2.50017 15.8101 2.5H8.19009C7.80368 2.50017 7.4256 2.61226 7.10155 2.82273C6.7775 3.03321 6.52136 3.33305 6.36409 3.686L4.68409 7.453H19.3161L17.6361 3.686ZM17.5801 15.47C17.393 15.47 17.2077 15.4331 17.0348 15.3615C16.8619 15.2899 16.7048 15.185 16.5725 15.0526C16.4401 14.9203 16.3352 14.7632 16.2636 14.5903C16.1919 14.4174 16.1551 14.2321 16.1551 14.045C16.1551 13.8579 16.1919 13.6726 16.2636 13.4997C16.3352 13.3268 16.4401 13.1697 16.5725 13.0374C16.7048 12.905 16.8619 12.8001 17.0348 12.7285C17.2077 12.6569 17.393 12.62 17.5801 12.62C17.958 12.62 18.3205 12.7701 18.5877 13.0374C18.855 13.3046 19.0051 13.6671 19.0051 14.045C19.0051 14.4229 18.855 14.7854 18.5877 15.0526C18.3205 15.3199 17.958 15.47 17.5801 15.47ZM6.41809 15.47C6.23096 15.47 6.04565 15.4331 5.87277 15.3615C5.69988 15.2899 5.54279 15.185 5.41046 15.0526C5.27814 14.9203 5.17317 14.7632 5.10156 14.5903C5.02995 14.4174 4.99309 14.2321 4.99309 14.045C4.99309 13.8579 5.02995 13.6726 5.10156 13.4997C5.17317 13.3268 5.27814 13.1697 5.41046 13.0374C5.54279 12.905 5.69988 12.8001 5.87277 12.7285C6.04565 12.6569 6.23096 12.62 6.41809 12.62C6.79602 12.62 7.15848 12.7701 7.42572 13.0374C7.69296 13.3046 7.84309 13.6671 7.84309 14.045C7.84309 14.4229 7.69296 14.7854 7.42572 15.0526C7.15848 15.3199 6.79602 15.47 6.41809 15.47ZM19.9821 8.953H4.01709C3.48666 8.953 2.97795 9.16371 2.60288 9.53879C2.2278 9.91386 2.01709 10.4226 2.01709 10.953V20.5C2.01709 20.7652 2.12245 21.0196 2.30998 21.2071C2.49752 21.3946 2.75187 21.5 3.01709 21.5H5.46109C5.72631 21.5 5.98066 21.3946 6.1682 21.2071C6.35573 21.0196 6.46109 20.7652 6.46109 20.5V19.136H17.5391V20.5C17.5391 20.7652 17.6444 21.0196 17.832 21.2071C18.0195 21.3946 18.2739 21.5 18.5391 21.5H20.9831C21.2483 21.5 21.5027 21.3946 21.6902 21.2071C21.8777 21.0196 21.9831 20.7652 21.9831 20.5V10.952C21.9831 9.847 21.0891 8.952 19.9831 8.952" fill="currentColor"/>
</g>
</svg>
