<svg width="24" height="24" viewBox="0 0 24 24" fill="none" xmlns="http://www.w3.org/2000/svg">
<g id="icon-card-mono">
<path id="Vector" fill-rule="evenodd" clip-rule="evenodd" d="M10.5 7.5H13.5V4.5H10.5V7.5ZM18 1.5H6C5.46957 1.5 4.96086 1.71071 4.58579 2.08579C4.21071 2.46086 4 2.96957 4 3.5V20.5C4 21.0304 4.21071 21.5391 4.58579 21.9142C4.96086 22.2893 5.46957 22.5 6 22.5H18C18.5304 22.5 19.0391 22.2893 19.4142 21.9142C19.7893 21.5391 20 21.0304 20 20.5V3.5C20 2.96957 19.7893 2.46086 19.4142 2.08579C19.0391 1.71071 18.5304 1.5 18 1.5Z" fill="#8B95A1"/>
</g>
</svg>
