<svg width="24" height="24" viewBox="0 0 24 24" fill="none" xmlns="http://www.w3.org/2000/svg">
<g id="icon-chat-bubble-mono">
<path id="Vector" fill-rule="evenodd" clip-rule="evenodd" d="M12 1.56494C6.201 1.56494 1.5 5.81794 1.5 11.0649C1.5 13.5919 2.598 15.8819 4.376 17.5849L3.508 21.8339C3.48952 21.9248 3.49667 22.0191 3.52867 22.1061C3.56066 22.1931 3.61624 22.2696 3.68918 22.3269C3.76212 22.3841 3.84956 22.42 3.94171 22.4304C4.03386 22.4409 4.1271 22.4255 4.211 22.3859L8.942 20.1529C9.93827 20.4267 10.9668 20.5652 12 20.5649C17.799 20.5649 22.5 16.3119 22.5 11.0649C22.5 5.81794 17.799 1.56494 12 1.56494Z" fill="#8B95A1"/>
</g>
</svg>
