<svg width="24" height="24" viewBox="0 0 24 24" fill="none" xmlns="http://www.w3.org/2000/svg">
<g id="icon-chat-bubble-question-mono">
<path id="Vector" fill-rule="evenodd" clip-rule="evenodd" d="M12 0.921875C18.065 0.921875 23 5.40688 23 10.9219C23 16.4359 18.065 20.9219 12 20.9219C10.795 20.9219 9.491 20.8009 9.047 20.7559L5.479 22.6739C5.3674 22.7338 5.24162 22.7623 5.11508 22.7564C4.98855 22.7505 4.86599 22.7103 4.76048 22.6402C4.65497 22.5701 4.57046 22.4727 4.51596 22.3583C4.46146 22.244 4.43901 22.117 4.451 21.9909L4.778 18.5679C1.999 16.4939 1 13.2799 1 10.9219C1 5.40688 5.935 0.921875 12 0.921875ZM12.072 13.9719C11.7541 13.9721 11.4493 14.0985 11.2245 14.3233C10.9997 14.5481 10.8733 14.853 10.873 15.1709C10.8726 15.4083 10.9427 15.6406 11.0743 15.8382C11.206 16.0358 11.3933 16.1899 11.6126 16.2811C11.8319 16.3722 12.0733 16.3961 12.3062 16.35C12.5392 16.3038 12.7532 16.1896 12.9212 16.0218C13.0892 15.8539 13.2036 15.64 13.2499 15.4071C13.2963 15.1742 13.2725 14.9328 13.1816 14.7134C13.0906 14.4941 12.9367 14.3066 12.7392 14.1748C12.5417 14.0429 12.3095 13.9727 12.072 13.9729V13.9719ZM12.057 5.49988C11.1996 5.50093 10.3776 5.842 9.77139 6.44826C9.16512 7.05452 8.82406 7.87649 8.823 8.73388C8.83537 8.93407 8.92362 9.12201 9.06976 9.2594C9.21589 9.39679 9.40892 9.47328 9.6095 9.47328C9.81008 9.47328 10.0031 9.39679 10.1492 9.2594C10.2954 9.12201 10.3836 8.93407 10.396 8.73388C10.396 7.81788 11.141 7.07288 12.057 7.07288C12.621 7.07288 13.193 7.33288 13.514 7.73488C13.759 8.04288 13.835 8.40988 13.738 8.82588C13.629 9.30587 13.348 9.50488 12.814 9.84587C12.164 10.2629 11.271 10.8339 11.271 12.2809C11.2783 12.4846 11.3643 12.6776 11.511 12.8191C11.6577 12.9607 11.8536 13.0398 12.0575 13.0398C12.2614 13.0398 12.4573 12.9607 12.604 12.8191C12.7507 12.6776 12.8367 12.4846 12.844 12.2809C12.844 11.7159 13.081 11.5419 13.664 11.1699C14.234 10.8049 15.014 10.3059 15.271 9.17788C15.474 8.29788 15.287 7.43788 14.743 6.75388C14.127 5.98088 13.098 5.49988 12.057 5.49988Z" fill="#8B95A1"/>
</g>
</svg>
