<svg width="24" height="24" viewBox="0 0 24 24" fill="none" xmlns="http://www.w3.org/2000/svg">
<g id="icon-check-circle-line-mono">
<path id="Vector" fill-rule="evenodd" clip-rule="evenodd" d="M17.2 10.2L11.6 15.8C11.4 16 11.2 16.1 10.9 16.1C10.6 16.1 10.4 16 10.2 15.8L6.8 12.4C6.4 12 6.4 11.4 6.8 11C7.2 10.6 7.8 10.6 8.2 11L10.9 13.7L15.8 8.8C16.2 8.4 16.8 8.4 17.2 8.8C17.6 9.2 17.6 9.8 17.2 10.2Z" fill="currentColor"/>
<path id="Vector_2" d="M12 3C17 3 21 7 21 12C21 17 17 21 12 21C7 21 3 17 3 12C3 7 7 3 12 3ZM12 1C5.9 1 1 5.9 1 12C1 18.1 5.9 23 12 23C18.1 23 23 18.1 23 12C23 5.9 18.1 1 12 1Z" fill="currentColor"/>
</g>
</svg>
