<svg width="24" height="24" viewBox="0 0 24 24" fill="none" xmlns="http://www.w3.org/2000/svg">
<g id="icon-clip-mono">
<path id="Vector" d="M8.3998 21.5998C6.4998 21.5998 4.4998 20.8998 3.0998 19.3998C0.199805 16.4998 0.199805 11.6998 3.0998 8.6998L7.5998 4.1998C7.9998 3.7998 8.6998 3.7998 9.1998 4.1998C9.5998 4.5998 9.5998 5.2998 9.1998 5.7998L4.6998 10.2998C2.5998 12.3998 2.5998 15.7998 4.6998 17.7998C6.7998 19.8998 10.1998 19.8998 12.1998 17.7998L19.9998 9.9998C21.1998 8.7998 21.1998 6.6998 19.9998 5.4998C18.7998 4.2998 16.6998 4.2998 15.4998 5.4998L8.3998 12.5998C7.9998 12.9998 7.9998 13.6998 8.3998 14.0998C8.7998 14.4998 9.4998 14.4998 9.8998 14.0998L14.6998 9.2998C15.0998 8.8998 15.7998 8.8998 16.2998 9.2998C16.6998 9.6998 16.6998 10.3998 16.2998 10.8998L11.4998 15.6998C10.0998 16.9998 7.99981 16.9998 6.79981 15.6998C5.49981 14.3998 5.49981 12.3998 6.79981 11.0998L13.8998 3.9998C15.9998 1.8998 19.3998 1.8998 21.4998 3.9998C23.5998 6.0998 23.5998 9.4998 21.4998 11.5998L13.6998 19.3998C12.2998 20.7998 10.3998 21.5998 8.3998 21.5998Z" fill="#8B95A1"/>
</g>
</svg>
