<svg width="24" height="24" viewBox="0 0 24 24" fill="none" xmlns="http://www.w3.org/2000/svg">
<g id="icon-coffee-mono">
<path id="Vector" fill-rule="evenodd" clip-rule="evenodd" d="M5.62678 22.087C5.64854 22.3362 5.76288 22.5681 5.94726 22.7372C6.13164 22.9062 6.37266 22.9999 6.62278 23H17.5858C17.8359 22.9999 18.0769 22.9062 18.2613 22.7372C18.4457 22.5681 18.56 22.3362 18.5818 22.087L18.8338 19.193L19.5508 10.969L19.6668 9.631H4.54178L5.62678 22.087ZM20.8038 4.53H19.2068L18.1178 1.666C18.0432 1.47019 17.9109 1.30165 17.7384 1.18271C17.5659 1.06378 17.3613 1.00006 17.1518 1H7.05778C6.62778 1 6.24378 1.265 6.09078 1.666L5.00178 4.53H3.19678C3.06417 4.53 2.93699 4.58268 2.84322 4.67645C2.74946 4.77021 2.69678 4.89739 2.69678 5.03V7.131C2.69678 7.26361 2.74946 7.39079 2.84322 7.48455C2.93699 7.57832 3.06417 7.631 3.19678 7.631H20.8038C20.9364 7.631 21.0636 7.57832 21.1573 7.48455C21.2511 7.39079 21.3038 7.26361 21.3038 7.131V5.03C21.3038 4.89739 21.2511 4.77021 21.1573 4.67645C21.0636 4.58268 20.9364 4.53 20.8038 4.53Z" fill="currentColor"/>
</g>
</svg>
