<svg width="24" height="24" viewBox="0 0 24 24" fill="none" xmlns="http://www.w3.org/2000/svg">
<g id="icon-coin-mono">
<path id="Vector" fill-rule="evenodd" clip-rule="evenodd" d="M18 13.247H15.989L15.269 15.866C15.2062 16.1002 15.0674 16.307 14.8746 16.4539C14.6817 16.6008 14.4455 16.6796 14.203 16.678H14.202C13.698 16.678 13.27 16.351 13.137 15.866L12 11.738L10.864 15.866C10.8012 16.1002 10.6624 16.307 10.4696 16.4539C10.2767 16.6008 10.0405 16.6796 9.798 16.678C9.294 16.678 8.866 16.352 8.732 15.867L8.011 13.247H6C5.76131 13.247 5.53239 13.1522 5.3636 12.9834C5.19482 12.8146 5.1 12.5857 5.1 12.347C5.1 12.1083 5.19482 11.8794 5.3636 11.7106C5.53239 11.5418 5.76131 11.447 6 11.447H7.516L6.885 9.155C6.8501 9.03999 6.83859 8.91916 6.85114 8.79964C6.8637 8.68011 6.90006 8.56431 6.9581 8.45907C7.01613 8.35382 7.09466 8.26127 7.18904 8.18686C7.28342 8.11246 7.39175 8.05771 7.50764 8.02585C7.62352 7.99399 7.74461 7.98566 7.86377 8.00136C7.98292 8.01706 8.09772 8.05646 8.2014 8.11725C8.30508 8.17803 8.39554 8.25897 8.46743 8.35527C8.53933 8.45158 8.5912 8.56132 8.62 8.678L9.798 12.956L10.934 8.829C10.9965 8.59452 11.1351 8.38745 11.328 8.24029C11.521 8.09314 11.7573 8.01424 12 8.016C12.504 8.016 12.933 8.343 13.066 8.829L14.203 12.956L15.38 8.678C15.4113 8.56401 15.4648 8.45731 15.5373 8.36399C15.6099 8.27066 15.7001 8.19254 15.8029 8.13409C15.9056 8.07563 16.0189 8.03799 16.1362 8.0233C16.2535 8.00862 16.3725 8.01718 16.4865 8.0485C16.6005 8.07982 16.7072 8.13329 16.8005 8.20584C16.8938 8.2784 16.972 8.36863 17.0304 8.47138C17.0889 8.57412 17.1265 8.68738 17.1412 8.80468C17.1559 8.92197 17.1473 9.04101 17.116 9.155L16.484 11.447H18C18.2387 11.447 18.4676 11.5418 18.6364 11.7106C18.8052 11.8794 18.9 12.1083 18.9 12.347C18.9 12.5857 18.8052 12.8146 18.6364 12.9834C18.4676 13.1522 18.2387 13.247 18 13.247ZM12 1C5.925 1 1 5.925 1 12C1 18.076 5.925 23 12 23C18.075 23 23 18.076 23 12C23 5.925 18.075 1 12 1Z" fill="#8B95A1"/>
</g>
</svg>
