<svg width="24" height="24" viewBox="0 0 24 24" fill="none" xmlns="http://www.w3.org/2000/svg">
<g id="icon-copy-mono">
<g id="Group">
<path id="Vector" fill-rule="evenodd" clip-rule="evenodd" d="M19.0998 8.2998H17.4998V10.6998H19.0998C19.7998 10.6998 20.2998 11.1998 20.2998 11.8998V19.0998C20.2998 19.7998 19.7998 20.2998 19.0998 20.2998H11.8998C11.1998 20.2998 10.6998 19.7998 10.6998 19.0998V17.6998H8.2998V19.0998C8.2998 21.0998 9.8998 22.6998 11.8998 22.6998H19.0998C21.0998 22.6998 22.6998 21.0998 22.6998 19.0998V11.8998C22.6998 9.8998 21.0998 8.2998 19.0998 8.2998Z" fill="#8B95A1"/>
<path id="Vector_2" fill-rule="evenodd" clip-rule="evenodd" d="M4.8998 3.6998C4.1998 3.6998 3.6998 4.1998 3.6998 4.8998V12.0998C3.6998 12.7998 4.1998 13.2998 4.8998 13.2998H12.0998C12.7998 13.2998 13.2998 12.7998 13.2998 12.0998V4.8998C13.2998 4.1998 12.7998 3.6998 12.0998 3.6998H4.8998ZM12.0998 15.6998H4.8998C2.8998 15.6998 1.2998 14.0998 1.2998 12.0998V4.8998C1.2998 2.8998 2.8998 1.2998 4.8998 1.2998H12.0998C14.0998 1.2998 15.6998 2.8998 15.6998 4.8998V12.0998C15.6998 14.0998 14.0998 15.6998 12.0998 15.6998Z" fill="#8B95A1"/>
</g>
</g>
</svg>
