<svg width="24" height="24" viewBox="0 0 24 24" fill="none" xmlns="http://www.w3.org/2000/svg">
<g id="icon-crop-mono" clip-path="url(#clip0_66_2172)">
<g id="Group">
<path id="Vector" fill-rule="evenodd" clip-rule="evenodd" d="M6.91514 15.8799V8.9209H4.51514V15.8809C4.51514 17.8649 6.13014 19.4809 8.11514 19.4809H15.0731V17.0809H8.11514C7.45314 17.0809 6.91514 16.5419 6.91514 15.8809" fill="#8B95A1"/>
<path id="Vector_2" fill-rule="evenodd" clip-rule="evenodd" d="M22.2732 17.08H19.4732V8.12104C19.4721 7.16649 19.0926 6.25133 18.4177 5.57627C17.7428 4.90121 16.8277 4.52136 15.8732 4.52004H6.9152V1.72104C6.90618 1.40864 6.77575 1.11206 6.55159 0.894288C6.32744 0.676511 6.02722 0.554688 5.7147 0.554688C5.40217 0.554688 5.10196 0.676511 4.87781 0.894288C4.65365 1.11206 4.52322 1.40864 4.5142 1.72104V4.52004H1.7142C1.40181 4.52905 1.10523 4.65949 0.887452 4.88364C0.669675 5.10779 0.547852 5.40801 0.547852 5.72054C0.547852 6.03306 0.669675 6.33328 0.887452 6.55743C1.10523 6.78158 1.40181 6.91202 1.7142 6.92104H15.8732C16.5352 6.92104 17.0732 7.45904 17.0732 8.12104V22.28C17.0732 22.4376 17.1042 22.5937 17.1645 22.7393C17.2249 22.8848 17.3132 23.0171 17.4247 23.1286C17.5361 23.24 17.6684 23.3284 17.814 23.3887C17.9596 23.449 18.1156 23.48 18.2732 23.48C18.4308 23.48 18.5868 23.449 18.7324 23.3887C18.878 23.3284 19.0103 23.24 19.1217 23.1286C19.2332 23.0171 19.3215 22.8848 19.3819 22.7393C19.4422 22.5937 19.4732 22.4376 19.4732 22.28V19.48H22.2732C22.4308 19.48 22.5868 19.449 22.7324 19.3887C22.878 19.3284 23.0103 19.24 23.1217 19.1286C23.2332 19.0171 23.3215 18.8848 23.3819 18.7393C23.4422 18.5937 23.4732 18.4376 23.4732 18.28C23.4732 18.1224 23.4422 17.9664 23.3819 17.8208C23.3215 17.6752 23.2332 17.5429 23.1217 17.4315C23.0103 17.3201 22.878 17.2317 22.7324 17.1714C22.5868 17.1111 22.4308 17.08 22.2732 17.08Z" fill="#8B95A1"/>
</g>
</g>
<defs>
<clipPath id="clip0_66_2172">
<rect width="24" height="24" fill="white"/>
</clipPath>
</defs>
</svg>
