<svg width="24" height="24" viewBox="0 0 24 24" fill="none" xmlns="http://www.w3.org/2000/svg">
<g id="icon-crown-mono" clip-path="url(#clip0_66_2204)">
<path id="Vector" fill-rule="evenodd" clip-rule="evenodd" d="M4.19198 20.792C4.19198 21.0572 4.29733 21.3115 4.48487 21.4991C4.67241 21.6866 4.92676 21.792 5.19198 21.792H18.809C19.0742 21.792 19.3285 21.6866 19.5161 21.4991C19.7036 21.3115 19.809 21.0572 19.809 20.792V19.542H4.19198V20.792ZM19.962 9.44598L16.112 11.436L12.878 6.46098C12.7829 6.31467 12.6528 6.19443 12.4995 6.11119C12.3462 6.02795 12.1744 5.98435 12 5.98435C11.8255 5.98435 11.6538 6.02795 11.5005 6.11119C11.3471 6.19443 11.217 6.31467 11.122 6.46098L7.88798 11.436L4.03798 9.44598C3.86254 9.35544 3.66509 9.31631 3.46838 9.33308C3.27167 9.34984 3.0837 9.42183 2.92611 9.54076C2.76852 9.65968 2.64773 9.82069 2.57765 10.0053C2.50757 10.1898 2.49104 10.3904 2.52998 10.584L4.03998 18.042H19.96L21.47 10.584C21.645 9.72198 20.743 9.04198 19.962 9.44598ZM12 5.14098C12.4164 5.14098 12.8157 4.97557 13.1101 4.68113C13.4046 4.3867 13.57 3.98737 13.57 3.57098C13.57 3.15459 13.4046 2.75525 13.1101 2.46082C12.8157 2.16639 12.4164 2.00098 12 2.00098C11.5836 2.00098 11.1842 2.16639 10.8898 2.46082C10.5954 2.75525 10.43 3.15459 10.43 3.57098C10.43 3.98737 10.5954 4.3867 10.8898 4.68113C11.1842 4.97557 11.5836 5.14098 12 5.14098ZM22.43 5.98498C22.0136 5.98498 21.6143 6.15039 21.3198 6.44482C21.0254 6.73925 20.86 7.13859 20.86 7.55498C20.86 7.97137 21.0254 8.3707 21.3198 8.66513C21.6143 8.95957 22.0136 9.12498 22.43 9.12498C22.8464 9.12498 23.2457 8.95957 23.5401 8.66513C23.8346 8.3707 24 7.97137 24 7.55498C24 7.13859 23.8346 6.73925 23.5401 6.44482C23.2457 6.15039 22.8464 5.98498 22.43 5.98498ZM3.14098 7.55498C3.14098 7.13859 2.97557 6.73925 2.68113 6.44482C2.3867 6.15039 1.98737 5.98498 1.57098 5.98498C1.15459 5.98498 0.755251 6.15039 0.460819 6.44482C0.166387 6.73925 0.000976563 7.13859 0.000976562 7.55498C0.000976563 7.97137 0.166387 8.3707 0.460819 8.66513C0.755251 8.95957 1.15459 9.12498 1.57098 9.12498C1.98737 9.12498 2.3867 8.95957 2.68113 8.66513C2.97557 8.3707 3.14098 7.97137 3.14098 7.55498Z" fill="currentColor"/>
</g>
<defs>
<clipPath id="clip0_66_2204">
<rect width="24" height="24" fill="white"/>
</clipPath>
</defs>
</svg>
