<svg xmlns="http://www.w3.org/2000/svg" width="33" height="32" viewBox="0 0 33 32" fill="none">
<path fill-rule="evenodd" clip-rule="evenodd" d="M11.0857 7H11.4999H27.4999H28.4999V8V24V25H27.4999H11.4999H11.0857L10.7928 24.7071L2.7928 16.7071L2.08569 16L2.7928 15.2929L10.7928 7.29289L11.0857 7ZM11.9141 9L4.91412 16L11.9141 23H26.4999V9H11.9141ZM15.4999 11.5858L16.207 12.2929L18.4999 14.5858L20.7928 12.2929L21.4999 11.5858L22.9141 13L22.207 13.7071L19.9141 16L22.207 18.2929L22.9141 19L21.4999 20.4142L20.7928 19.7071L18.4999 17.4142L16.207 19.7071L15.4999 20.4142L14.0857 19L14.7928 18.2929L17.0857 16L14.7928 13.7071L14.0857 13L15.4999 11.5858Z" fill="black"/>
</svg>