<svg width="24" height="24" viewBox="0 0 24 24" fill="none" xmlns="http://www.w3.org/2000/svg">
<g id="icon-document-mono">
<g id="Group">
<path id="Vector" fill-rule="evenodd" clip-rule="evenodd" d="M19.5 2H4.5C4.23478 2 3.98043 2.10536 3.79289 2.29289C3.60536 2.48043 3.5 2.73478 3.5 3V21C3.5 21.2652 3.60536 21.5196 3.79289 21.7071C3.98043 21.8946 4.23478 22 4.5 22H13V17C13 15.622 14.122 14.5 15.5 14.5H20.5V3C20.5 2.73478 20.3946 2.48043 20.2071 2.29289C20.0196 2.10536 19.7652 2 19.5 2Z" fill="#8B95A1"/>
<path id="Vector_2" fill-rule="evenodd" clip-rule="evenodd" d="M14.5 17V22L20.5 16H15.5C15.2348 16 14.9804 16.1054 14.7929 16.2929C14.6054 16.4804 14.5 16.7348 14.5 17Z" fill="#8B95A1"/>
</g>
</g>
</svg>
