<svg width="24" height="24" viewBox="0 0 24 24" fill="none" xmlns="http://www.w3.org/2000/svg">
<g id="icon-dots-six-vertical-mono">
<g id="Group">
<path id="Vector" fill-rule="evenodd" clip-rule="evenodd" d="M9.1252 17.1249C9.60259 17.1249 10.0604 17.3145 10.398 17.6521C10.7356 17.9897 10.9252 18.4475 10.9252 18.9249C10.9252 19.4023 10.7356 19.8601 10.398 20.1977C10.0604 20.5353 9.60259 20.7249 9.1252 20.7249C8.64781 20.7249 8.18997 20.5353 7.8524 20.1977C7.51484 19.8601 7.3252 19.4023 7.3252 18.9249C7.3252 18.4475 7.51484 17.9897 7.8524 17.6521C8.18997 17.3145 8.64781 17.1249 9.1252 17.1249ZM10.9252 12.1249C10.9252 13.1249 10.1252 13.9249 9.1252 13.9249C8.1252 13.9249 7.3252 13.1249 7.3252 12.1249C7.3252 11.1249 8.1252 10.3249 9.1252 10.3249C10.1252 10.3249 10.9252 11.1249 10.9252 12.1249ZM10.9252 5.3249C10.9252 6.3249 10.1252 7.1249 9.1252 7.1249C8.1252 7.1249 7.3252 6.3249 7.3252 5.3249C7.3252 4.3249 8.1252 3.5249 9.1252 3.5249C10.1252 3.5249 10.9252 4.3249 10.9252 5.3249ZM15.1252 17.1249C15.6026 17.1249 16.0604 17.3145 16.398 17.6521C16.7356 17.9897 16.9252 18.4475 16.9252 18.9249C16.9252 19.4023 16.7356 19.8601 16.398 20.1977C16.0604 20.5353 15.6026 20.7249 15.1252 20.7249C14.6478 20.7249 14.19 20.5353 13.8524 20.1977C13.5148 19.8601 13.3252 19.4023 13.3252 18.9249C13.3252 18.4475 13.5148 17.9897 13.8524 17.6521C14.19 17.3145 14.6478 17.1249 15.1252 17.1249ZM16.9252 12.1249C16.9252 13.1249 16.1252 13.9249 15.1252 13.9249C14.1252 13.9249 13.3252 13.1249 13.3252 12.1249C13.3252 11.1249 14.1252 10.3249 15.1252 10.3249C16.1252 10.3249 16.9252 11.1249 16.9252 12.1249ZM16.9252 5.3249C16.9252 6.3249 16.1252 7.1249 15.1252 7.1249C14.1252 7.1249 13.3252 6.3249 13.3252 5.3249C13.3252 4.3249 14.1252 3.5249 15.1252 3.5249C16.1252 3.5249 16.9252 4.3249 16.9252 5.3249Z" fill="currentColor"/>
</g>
</g>
</svg>
