<svg width="24" height="24" viewBox="0 0 24 24" fill="none" xmlns="http://www.w3.org/2000/svg">
<g id="icon-dots-six-horizontal-mono">
<g id="Group">
<path id="Vector" fill-rule="evenodd" clip-rule="evenodd" d="M5.3249 7.3252C5.80229 7.3252 6.26013 7.51484 6.59769 7.8524C6.93526 8.18997 7.1249 8.64781 7.1249 9.1252C7.1249 9.60259 6.93526 10.0604 6.59769 10.398C6.26013 10.7356 5.80229 10.9252 5.3249 10.9252C4.84751 10.9252 4.38968 10.7356 4.05211 10.398C3.71454 10.0604 3.5249 9.60259 3.5249 9.1252C3.5249 8.64781 3.71454 8.18997 4.05211 7.8524C4.38968 7.51484 4.84751 7.3252 5.3249 7.3252ZM12.1249 10.9252C11.1249 10.9252 10.3249 10.1252 10.3249 9.1252C10.3249 8.1252 11.1249 7.3252 12.1249 7.3252C13.1249 7.3252 13.9249 8.1252 13.9249 9.1252C13.9249 10.1252 13.1249 10.9252 12.1249 10.9252ZM18.9249 10.9252C17.9249 10.9252 17.1249 10.1252 17.1249 9.1252C17.1249 8.1252 17.9249 7.3252 18.9249 7.3252C19.9249 7.3252 20.7249 8.1252 20.7249 9.1252C20.7249 10.1252 19.9249 10.9252 18.9249 10.9252ZM5.3249 13.3252C5.80229 13.3252 6.26013 13.5148 6.59769 13.8524C6.93526 14.19 7.1249 14.6478 7.1249 15.1252C7.1249 15.6026 6.93526 16.0604 6.59769 16.398C6.26013 16.7356 5.80229 16.9252 5.3249 16.9252C4.84751 16.9252 4.38968 16.7356 4.05211 16.398C3.71454 16.0604 3.5249 15.6026 3.5249 15.1252C3.5249 14.6478 3.71454 14.19 4.05211 13.8524C4.38968 13.5148 4.84751 13.3252 5.3249 13.3252ZM12.1249 16.9252C11.1249 16.9252 10.3249 16.1252 10.3249 15.1252C10.3249 14.1252 11.1249 13.3252 12.1249 13.3252C13.1249 13.3252 13.9249 14.1252 13.9249 15.1252C13.9249 16.1252 13.1249 16.9252 12.1249 16.9252ZM18.9249 16.9252C17.9249 16.9252 17.1249 16.1252 17.1249 15.1252C17.1249 14.1252 17.9249 13.3252 18.9249 13.3252C19.9249 13.3252 20.7249 14.1252 20.7249 15.1252C20.7249 16.1252 19.9249 16.9252 18.9249 16.9252Z" fill="#8B95A1"/>
</g>
</g>
</svg>
