<svg width="24" height="24" viewBox="0 0 24 24" fill="none" xmlns="http://www.w3.org/2000/svg">
<g id="icon-download-mono">
<g id="Group">
<path id="Vector" d="M11.21 15.4002C11.42 15.6102 11.71 15.7202 11.99 15.7202C12.27 15.7202 12.55 15.6102 12.77 15.4002L18 10.1602C18.43 9.73018 18.43 9.03018 18 8.60018C17.57 8.17018 16.87 8.17018 16.44 8.60018L13.09 11.9502V2.78018C13.09 2.17018 12.6 1.68018 11.99 1.68018C11.38 1.68018 10.89 2.17018 10.89 2.78018V11.9602L7.52996 8.61018C7.09996 8.18018 6.39996 8.18018 5.96996 8.61018C5.53996 9.04018 5.53996 9.74018 5.96996 10.1702L11.21 15.4002Z" fill="#8B95A1"/>
<path id="Vector_2" d="M21.38 13.0903C20.77 13.0903 20.28 13.5803 20.28 14.1903V18.4003C20.28 19.1203 19.7 19.7003 18.98 19.7003H5C4.28 19.7003 3.7 19.1203 3.7 18.4003V14.1903C3.7 13.5803 3.21 13.0903 2.6 13.0903C1.99 13.0903 1.5 13.5803 1.5 14.1903V18.4003C1.5 20.3303 3.07 21.9003 5 21.9003H18.98C20.91 21.9003 22.48 20.3303 22.48 18.4003V14.1903C22.48 13.5803 21.99 13.0903 21.38 13.0903Z" fill="#8B95A1"/>
</g>
</g>
</svg>
