<svg width="24" height="24" viewBox="0 0 24 24" fill="none" xmlns="http://www.w3.org/2000/svg">
<g id="icon-enter-mono">
<path id="Vector" d="M20.71 4.00016C20.71 3.39016 20.22 2.91016 19.61 2.91016H19.6C18.99 2.91016 18.5 3.41016 18.51 4.02016L18.55 12.6002C18.55 13.0002 18.4 13.3802 18.11 13.6602C17.83 13.9402 17.45 14.1002 17.05 14.1002H5.98998L9.91998 10.1702C10.35 9.74016 10.35 9.04016 9.91998 8.61016C9.48998 8.18016 8.79998 8.18016 8.35998 8.61016L2.54998 14.4202C2.33998 14.6302 2.22998 14.9102 2.22998 15.2002C2.22998 15.4902 2.34998 15.7702 2.54998 15.9802L8.35998 21.7902C8.56998 22.0002 8.85998 22.1102 9.13998 22.1102C9.41998 22.1102 9.69998 22.0002 9.91998 21.7902C10.35 21.3602 10.35 20.6602 9.91998 20.2402L5.98998 16.3102H17.06C18.05 16.3102 18.98 15.9202 19.68 15.2202C20.38 14.5202 20.76 13.5902 20.76 12.6002L20.71 4.00016Z" fill="#8B95A1"/>
</g>
</svg>
