<svg width="24" height="24" viewBox="0 0 24 24" fill="none" xmlns="http://www.w3.org/2000/svg">
<g id="icon-eye-off-mono">
<g id="Group">
<path id="Vector" d="M14.7789 4.67173C13.8709 4.45373 12.9429 4.32373 11.9999 4.32373C7.78795 4.32373 3.80495 6.58473 1.18195 10.3517C0.497945 11.3337 0.497945 12.6667 1.18195 13.6487C1.82195 14.5677 2.54495 15.3927 3.32995 16.1217L14.7789 4.67173Z" fill="currentColor"/>
<path id="Vector_2" d="M22.8188 10.3518C21.7688 8.84384 20.4938 7.59084 19.0788 6.61884L21.6478 4.04984C22.1168 3.58084 22.1168 2.82084 21.6478 2.35284C21.1788 1.88484 20.4188 1.88384 19.9508 2.35284L2.35175 19.9498C1.88275 20.4188 1.88275 21.1788 2.35175 21.6468C2.58575 21.8808 2.89375 21.9988 3.20075 21.9988C3.50775 21.9988 3.81475 21.8818 4.04975 21.6468L7.09375 18.6028C8.64275 19.2938 10.2998 19.6758 11.9998 19.6758C16.2127 19.6758 20.1958 17.4148 22.8188 13.6478C23.5018 12.6668 23.5018 11.3338 22.8188 10.3518ZM11.9987 15.9738C11.3397 15.9738 10.7248 15.8028 10.1798 15.5158L15.5148 10.1808C15.8018 10.7258 15.9727 11.3398 15.9727 11.9988C15.9727 14.1918 14.1897 15.9738 11.9987 15.9738Z" fill="currentColor"/>
</g>
</g>
</svg>
