<svg width="24" height="24" viewBox="0 0 24 24" fill="none" xmlns="http://www.w3.org/2000/svg">
<g id="icon-eye-on-mono">
<g id="Group">
<path id="Vector" fill-rule="evenodd" clip-rule="evenodd" d="M12.1251 9.22461C10.5251 9.22461 9.2251 10.5246 9.2251 12.1246C9.2251 13.7246 10.5251 15.0246 12.1251 15.0246C13.7251 15.0246 15.0251 13.7246 15.0251 12.1246C15.0251 10.5246 13.7251 9.22461 12.1251 9.22461Z" fill="#8B95A1"/>
<path id="Vector_2" fill-rule="evenodd" clip-rule="evenodd" d="M12.125 17.1248C9.325 17.1248 7.125 14.8248 7.125 12.1248C7.125 9.4248 9.425 7.1248 12.125 7.1248C14.825 7.1248 17.125 9.4248 17.125 12.1248C17.125 14.8248 14.925 17.1248 12.125 17.1248ZM23.125 10.8248C20.525 6.8248 16.425 4.4248 12.125 4.4248C7.825 4.4248 3.725 6.8248 1.125 10.8248C0.625 11.6248 0.625 12.6248 1.125 13.4248C3.725 17.4248 7.825 19.8248 12.125 19.8248C16.425 19.8248 20.525 17.4248 23.125 13.4248C23.725 12.6248 23.725 11.6248 23.125 10.8248Z" fill="#8B95A1"/>
</g>
</g>
</svg>
