<svg width="24" height="24" viewBox="0 0 24 24" fill="none" xmlns="http://www.w3.org/2000/svg">
<g id="icon-filter-mono">
<path id="Vector" fill-rule="evenodd" clip-rule="evenodd" d="M14.7709 4.5999C15.0174 4.6079 15.2511 4.71144 15.4226 4.88864C15.5942 5.06583 15.6901 5.30278 15.6901 5.5494C15.6901 5.79602 15.5942 6.03298 15.4226 6.21017C15.2511 6.38736 15.0174 6.4909 14.7709 6.4989C14.5244 6.4909 14.2907 6.38736 14.1192 6.21017C13.9476 6.03298 13.8517 5.79602 13.8517 5.5494C13.8517 5.30278 13.9476 5.06583 14.1192 4.88864C14.2907 4.71144 14.5244 4.6079 14.7709 4.5999ZM3.4999 6.6489H11.8299C12.0531 7.24941 12.4543 7.76746 12.9798 8.1338C13.5054 8.50013 14.1303 8.69729 14.7709 8.6989C15.4114 8.69709 16.036 8.49984 16.5614 8.13351C17.0867 7.76719 17.4878 7.24925 17.7109 6.6489H20.4999C20.7916 6.6489 21.0714 6.53301 21.2777 6.32672C21.484 6.12043 21.5999 5.84064 21.5999 5.5489C21.5999 5.25716 21.484 4.97737 21.2777 4.77108C21.0714 4.56479 20.7916 4.4489 20.4999 4.4489H17.7109C17.4876 3.84875 17.0865 3.33102 16.5612 2.96488C16.0358 2.59875 15.4112 2.40164 14.7709 2.3999C14.1305 2.40172 13.5058 2.59884 12.9803 2.96495C12.4548 3.33106 12.0535 3.84875 11.8299 4.4489H3.4999C3.20816 4.4489 2.92837 4.56479 2.72208 4.77108C2.51579 4.97737 2.3999 5.25716 2.3999 5.5489C2.3999 5.84064 2.51579 6.12043 2.72208 6.32672C2.92837 6.53301 3.20816 6.6489 3.4999 6.6489ZM20.4999 10.8989H3.4999C3.20816 10.8989 2.92837 11.0148 2.72208 11.2211C2.51579 11.4274 2.3999 11.7072 2.3999 11.9989C2.3999 12.2906 2.51579 12.5704 2.72208 12.7767C2.92837 12.983 3.20816 13.0989 3.4999 13.0989H20.4999C20.7916 13.0989 21.0714 12.983 21.2777 12.7767C21.484 12.5704 21.5999 12.2906 21.5999 11.9989C21.5999 11.7072 21.484 11.4274 21.2777 11.2211C21.0714 11.0148 20.7916 10.8989 20.4999 10.8989ZM9.2289 19.3999C8.98475 19.3887 8.75431 19.2838 8.58549 19.1071C8.41668 18.9303 8.32248 18.6953 8.32248 18.4509C8.32248 18.2065 8.41668 17.9715 8.58549 17.7947C8.75431 17.618 8.98475 17.5131 9.2289 17.5019C9.47539 17.5099 9.70911 17.6134 9.88064 17.7906C10.0522 17.9678 10.1481 18.2048 10.1481 18.4514C10.1481 18.698 10.0522 18.935 9.88064 19.1122C9.70911 19.2894 9.47539 19.3929 9.2289 19.4009M20.4999 17.3499H12.1699C11.9467 16.7494 11.5455 16.2313 11.02 15.865C10.4944 15.4987 9.86954 15.3015 9.2289 15.2999C8.58844 15.3017 7.96379 15.499 7.43843 15.8653C6.91306 16.2316 6.51202 16.7496 6.2889 17.3499H3.4999C3.20816 17.3499 2.92837 17.4658 2.72208 17.6721C2.51579 17.8784 2.3999 18.1582 2.3999 18.4499C2.3999 18.7416 2.51579 19.0214 2.72208 19.2277C2.92837 19.434 3.20816 19.5499 3.4999 19.5499H6.2889C6.51202 20.1502 6.91306 20.6682 7.43843 21.0345C7.96379 21.4008 8.58844 21.5981 9.2289 21.5999C9.86947 21.598 10.4942 21.4007 11.0197 21.0344C11.5452 20.6681 11.9465 20.1502 12.1699 19.5499H20.4999C20.7916 19.5499 21.0714 19.434 21.2777 19.2277C21.484 19.0214 21.5999 18.7416 21.5999 18.4499C21.5999 18.1582 21.484 17.8784 21.2777 17.6721C21.0714 17.4658 20.7916 17.3499 20.4999 17.3499Z" fill="currentColor"/>
</g>
</svg>
