<svg width="24" height="24" viewBox="0 0 24 24" fill="none" xmlns="http://www.w3.org/2000/svg">
<g id="icon-folk-knife-mono">
<path id="Vector" fill-rule="evenodd" clip-rule="evenodd" d="M19.7349 3.81204V1.70804C19.7342 1.6165 19.709 1.52682 19.6619 1.44831C19.6148 1.3698 19.5476 1.30531 19.4672 1.26154C19.3868 1.21777 19.2962 1.19631 19.2047 1.19939C19.1132 1.20246 19.0242 1.22997 18.9469 1.27904C14.7499 3.90104 13.6699 10.171 13.3999 12.71C13.3856 12.849 13.4007 12.9894 13.4442 13.1221C13.4876 13.2548 13.5585 13.3769 13.6523 13.4805C13.746 13.584 13.8605 13.6667 13.9883 13.7231C14.116 13.7796 14.2542 13.8085 14.3939 13.808L16.9739 13.812L16.6959 21.878C16.6885 22.0822 16.7223 22.2857 16.7953 22.4764C16.8683 22.6672 16.979 22.8413 17.1208 22.9883C17.2626 23.1353 17.4325 23.2523 17.6205 23.3321C17.8085 23.412 18.0106 23.4532 18.2149 23.4532C18.4191 23.4532 18.6213 23.412 18.8093 23.3321C18.9973 23.2523 19.1672 23.1353 19.309 22.9883C19.4508 22.8413 19.5615 22.6672 19.6345 22.4764C19.7075 22.2857 19.7413 22.0822 19.7339 21.878V3.81204H19.7349ZM11.3879 1.01904C11.1227 1.01904 10.8683 1.1244 10.6808 1.31194C10.4933 1.49947 10.3879 1.75383 10.3879 2.01904V6.18204C10.3879 6.24404 10.3749 6.30204 10.3729 6.36304H8.5919V2.01904C8.5919 1.75383 8.48654 1.49947 8.29901 1.31194C8.11147 1.1244 7.85711 1.01904 7.5919 1.01904C7.32668 1.01904 7.07233 1.1244 6.88479 1.31194C6.69726 1.49947 6.5919 1.75383 6.5919 2.01904V6.36304H4.8109C4.8089 6.30204 4.7959 6.24404 4.7959 6.18204V2.01904C4.7959 1.75383 4.69054 1.49947 4.50301 1.31194C4.31547 1.1244 4.06111 1.01904 3.7959 1.01904C3.53068 1.01904 3.27633 1.1244 3.08879 1.31194C2.90126 1.49947 2.7959 1.75383 2.7959 2.01904V6.18204C2.7959 8.75304 4.3729 10.909 6.4849 11.479L6.0729 21.88C6.06769 22.0829 6.10315 22.2847 6.17717 22.4736C6.25119 22.6625 6.36229 22.8347 6.5039 22.98C6.64551 23.1252 6.81478 23.2407 7.00173 23.3196C7.18867 23.3984 7.38951 23.439 7.5924 23.439C7.79529 23.439 7.99613 23.3984 8.18307 23.3196C8.37002 23.2407 8.53928 23.1252 8.6809 22.98C8.82251 22.8347 8.9336 22.6625 9.00763 22.4736C9.08165 22.2847 9.1171 22.0829 9.1119 21.88L8.6999 11.479C10.8109 10.909 12.3879 8.75304 12.3879 6.18204V2.01904C12.3879 1.75383 12.2825 1.49947 12.095 1.31194C11.9075 1.1244 11.6531 1.01904 11.3879 1.01904Z" fill="currentColor"/>
</g>
</svg>
