<svg width="24" height="24" viewBox="0 0 24 24" fill="none" xmlns="http://www.w3.org/2000/svg">
<g id="icon-graph-bar-up-mono">
<path id="Vector" fill-rule="evenodd" clip-rule="evenodd" d="M6.737 21.25H4C3.73478 21.25 3.48043 21.1446 3.29289 20.9571C3.10536 20.7696 3 20.5152 3 20.25V13.724C3 13.4588 3.10536 13.2044 3.29289 13.0169C3.48043 12.8294 3.73478 12.724 4 12.724H6.737C7.00222 12.724 7.25657 12.8294 7.44411 13.0169C7.63164 13.2044 7.737 13.4588 7.737 13.724V20.25C7.737 20.5152 7.63164 20.7696 7.44411 20.9571C7.25657 21.1446 7.00222 21.25 6.737 21.25ZM13.369 21.25H10.632C10.3668 21.25 10.1124 21.1446 9.92489 20.9571C9.73736 20.7696 9.632 20.5152 9.632 20.25V8.987C9.632 8.72178 9.73736 8.46743 9.92489 8.27989C10.1124 8.09236 10.3668 7.987 10.632 7.987H13.369C13.6342 7.987 13.8886 8.09236 14.0761 8.27989C14.2636 8.46743 14.369 8.72178 14.369 8.987V20.25C14.369 20.5152 14.2636 20.7696 14.0761 20.9571C13.8886 21.1446 13.6342 21.25 13.369 21.25ZM20 21.25H17.263C16.9978 21.25 16.7434 21.1446 16.5559 20.9571C16.3684 20.7696 16.263 20.5152 16.263 20.25V4.25C16.263 3.98478 16.3684 3.73043 16.5559 3.54289C16.7434 3.35536 16.9978 3.25 17.263 3.25H20C20.2652 3.25 20.5196 3.35536 20.7071 3.54289C20.8946 3.73043 21 3.98478 21 4.25V20.25C21 20.5152 20.8946 20.7696 20.7071 20.9571C20.5196 21.1446 20.2652 21.25 20 21.25Z" fill="#8B95A1"/>
</g>
</svg>
