<svg width="24" height="24" viewBox="0 0 24 24" fill="none" xmlns="http://www.w3.org/2000/svg">
<g id="icon-headphone-mono">
<path id="Vector" fill-rule="evenodd" clip-rule="evenodd" d="M23.2551 14.2508C23.2551 11.9898 21.6951 10.1018 19.6001 9.5638V8.8998C19.6001 4.7088 16.1911 1.2998 12.0001 1.2998C7.81012 1.2998 4.40112 4.7088 4.40112 8.8998V9.5638C2.30512 10.1018 0.745117 11.9898 0.745117 14.2508C0.746441 15.5382 1.25851 16.7725 2.16893 17.6827C3.07935 18.5929 4.31372 19.1047 5.60112 19.1058C5.91938 19.1058 6.2246 18.9794 6.44965 18.7543C6.67469 18.5293 6.80112 18.2241 6.80112 17.9058V8.8998C6.80112 6.0328 9.13312 3.6998 12.0001 3.6998C14.8671 3.6998 17.2001 6.0328 17.2001 8.8998V17.4088L14.6601 19.9488C14.5489 20.0604 14.4168 20.1489 14.2712 20.2091C14.1257 20.2694 13.9696 20.3002 13.8121 20.2998H11.8891C11.5709 20.2998 11.2656 20.4262 11.0406 20.6513C10.8155 20.8763 10.6891 21.1815 10.6891 21.4998C10.6891 21.8181 10.8155 22.1233 11.0406 22.3483C11.2656 22.5734 11.5709 22.6998 11.8891 22.6998H13.8121C14.7741 22.6998 15.6781 22.3258 16.3581 21.6458L18.9531 19.0498C21.3671 18.7718 23.2551 16.7388 23.2551 14.2508Z" fill="currentColor"/>
</g>
</svg>
