<svg width="24" height="24" viewBox="0 0 24 24" fill="none" xmlns="http://www.w3.org/2000/svg">
<g id="icon-heart-mono">
<path id="Vector" fill-rule="evenodd" clip-rule="evenodd" d="M10.9038 21.5272C11.5698 21.9672 12.4288 21.9672 13.0938 21.5272C15.2088 20.1312 19.8138 16.7942 21.7978 13.0602C24.4128 8.13419 21.3418 3.22119 17.2818 3.22119C14.9678 3.22119 13.5758 4.43019 12.8058 5.46919C12.7133 5.59644 12.592 5.70001 12.4518 5.77141C12.3116 5.84282 12.1566 5.88005 11.9993 5.88005C11.8419 5.88005 11.6869 5.84282 11.5467 5.77141C11.4065 5.70001 11.2852 5.59644 11.1928 5.46919C10.4228 4.43019 9.03076 3.22119 6.71676 3.22119C2.65676 3.22119 -0.414244 8.13419 2.20176 13.0602C4.18376 16.7942 8.79076 20.1312 10.9038 21.5272Z" fill="#8B95A1"/>
</g>
</svg>
