<svg width="24" height="24" viewBox="0 0 24 24" fill="none" xmlns="http://www.w3.org/2000/svg">
<g id="icon-info-circle-mono">
<path id="Vector" fill-rule="evenodd" clip-rule="evenodd" d="M12 9.2C11.6817 9.2 11.3765 9.07357 11.1515 8.84853C10.9264 8.62348 10.8 8.31826 10.8 8C10.8 7.68174 10.9264 7.37652 11.1515 7.15147C11.3765 6.92643 11.6817 6.8 12 6.8C12.3183 6.8 12.6235 6.92643 12.8485 7.15147C13.0736 7.37652 13.2 7.68174 13.2 8C13.2 8.31826 13.0736 8.62348 12.8485 8.84853C12.6235 9.07357 12.3183 9.2 12 9.2ZM13 16.635C13 16.9002 12.8946 17.1546 12.7071 17.3421C12.5196 17.5296 12.2652 17.635 12 17.635C11.7348 17.635 11.4804 17.5296 11.2929 17.3421C11.1054 17.1546 11 16.9002 11 16.635V11.635C11 11.3698 11.1054 11.1154 11.2929 10.9279C11.4804 10.7404 11.7348 10.635 12 10.635C12.2652 10.635 12.5196 10.7404 12.7071 10.9279C12.8946 11.1154 13 11.3698 13 11.635V16.635ZM12 1C5.925 1 1 5.925 1 12C1 18.075 5.925 23 12 23C18.075 23 23 18.075 23 12C23 5.925 18.075 1 12 1Z" fill="currentColor"/>
</g>
</svg>
