<svg width="24" height="24" viewBox="0 0 24 24" fill="none" xmlns="http://www.w3.org/2000/svg">
<g id="icon-link-mono" clip-path="url(#clip0_66_2188)">
<g id="Group">
<path id="Vector" fill-rule="evenodd" clip-rule="evenodd" d="M21.3157 2.68396C20.1725 1.54338 18.6236 0.902832 17.0087 0.902832C15.3939 0.902832 13.8449 1.54338 12.7017 2.68396L10.6487 4.73596C10.4547 4.94475 10.3493 5.22064 10.3545 5.5056C10.3597 5.79056 10.4753 6.06238 10.6768 6.26391C10.8783 6.46544 11.1501 6.58097 11.4351 6.5862C11.7201 6.59143 11.9959 6.48596 12.2047 6.29196L14.2577 4.23996C14.9879 3.51145 15.9773 3.10232 17.0087 3.10232C18.0402 3.10232 19.0295 3.51145 19.7597 4.23996C20.1222 4.60035 20.4096 5.02905 20.6053 5.50127C20.801 5.97348 20.9011 6.47981 20.8997 6.99096C20.9011 7.50212 20.8011 8.00847 20.6054 8.48069C20.4097 8.95291 20.1223 9.38161 19.7597 9.74196L16.1587 13.343C14.6897 14.813 12.1267 14.813 10.6567 13.343C10.4134 13.1004 10.2032 12.8267 10.0317 12.529C9.88639 12.2759 9.6465 12.091 9.36482 12.0149C9.08314 11.9388 8.78275 11.9776 8.52973 12.123C8.27672 12.2683 8.0918 12.5082 8.01566 12.7899C7.93952 13.0716 7.97839 13.3719 8.12373 13.625C8.39073 14.088 8.71873 14.517 9.10073 14.899C9.66512 15.4662 10.3364 15.9159 11.0756 16.2222C11.8149 16.5284 12.6076 16.685 13.4077 16.683C14.2079 16.6851 15.0006 16.5285 15.7399 16.2223C16.4792 15.9161 17.1504 15.4663 17.7147 14.899L21.3157 11.299C21.8832 10.7343 22.3331 10.0628 22.6393 9.32314C22.9455 8.58351 23.102 7.79048 23.0997 6.98996C23.1019 6.18976 22.9453 5.39709 22.6391 4.65779C22.3329 3.9185 21.8831 3.24728 21.3157 2.68296" fill="#8B95A1"/>
<path id="Vector_2" fill-rule="evenodd" clip-rule="evenodd" d="M11.7949 17.7079L9.74192 19.7609C9.01147 20.4889 8.02222 20.8977 6.99092 20.8977C5.95962 20.8977 4.97037 20.4889 4.23992 19.7609C3.87765 19.4004 3.5904 18.9716 3.39473 18.4995C3.19906 18.0273 3.09887 17.521 3.09992 17.0099C3.09992 15.9709 3.50492 14.9939 4.23992 14.2599L7.84092 10.6579C8.26388 10.2359 8.77828 9.91675 9.34432 9.72532C9.91035 9.53388 10.5128 9.47524 11.1052 9.55393C11.6975 9.63262 12.2638 9.84654 12.7602 10.1791C13.2566 10.5117 13.6698 10.9541 13.9679 11.4719C14.0399 11.5972 14.1358 11.7071 14.2503 11.7953C14.3647 11.8835 14.4954 11.9483 14.6348 11.986C14.7743 12.0237 14.9198 12.0336 15.0631 12.015C15.2064 11.9965 15.3446 11.9499 15.4699 11.8779C15.5952 11.806 15.7051 11.71 15.7933 11.5956C15.8815 11.4812 15.9463 11.3505 15.984 11.211C16.0217 11.0715 16.0316 10.926 16.013 10.7827C15.9945 10.6394 15.9479 10.5012 15.8759 10.3759C15.409 9.56559 14.762 8.87348 13.9849 8.3531C13.2079 7.83273 12.3215 7.49803 11.3944 7.37488C10.4674 7.25174 9.52438 7.34344 8.6384 7.64291C7.75242 7.94237 6.94718 8.44158 6.28492 9.10193L2.68392 12.7029C2.11668 13.2673 1.66694 13.9385 1.36073 14.6778C1.05451 15.4171 0.897892 16.2097 0.899922 17.0099C0.899922 18.6369 1.53392 20.1669 2.68392 21.3169C3.24895 21.8831 3.92037 22.3319 4.65955 22.6376C5.39872 22.9432 6.19105 23.0997 6.99092 23.0979C8.55092 23.0979 10.1099 22.5039 11.2979 21.3179L13.3509 19.2649C13.5449 19.0561 13.6504 18.7803 13.6452 18.4953C13.6399 18.2103 13.5244 17.9385 13.3229 17.737C13.1213 17.5354 12.8495 17.4199 12.5646 17.4147C12.2796 17.4095 12.0037 17.5149 11.7949 17.7089" fill="#8B95A1"/>
</g>
</g>
<defs>
<clipPath id="clip0_66_2188">
<rect width="24" height="24" fill="white"/>
</clipPath>
</defs>
</svg>
