<svg width="24" height="24" viewBox="0 0 24 24" fill="none" xmlns="http://www.w3.org/2000/svg">
<g id="icon-lock-mono">
<path id="Vector" fill-rule="evenodd" clip-rule="evenodd" d="M12.9 14.0748V16.2738C12.9 16.5125 12.8052 16.7414 12.6364 16.9102C12.4676 17.079 12.2387 17.1738 12 17.1738C11.7613 17.1738 11.5324 17.079 11.3636 16.9102C11.1948 16.7414 11.1 16.5125 11.1 16.2738V14.0748C10.827 13.9181 10.6002 13.6922 10.4422 13.4199C10.2842 13.1477 10.2007 12.8386 10.2 12.5238C10.2111 12.0539 10.4055 11.607 10.7418 11.2785C11.0781 10.9501 11.5295 10.7662 11.9995 10.7662C12.4695 10.7662 12.9209 10.9501 13.2572 11.2785C13.5935 11.607 13.7879 12.0539 13.799 12.5238C13.799 13.1888 13.435 13.7628 12.9 14.0748ZM8.82 6.49882C8.82106 5.65585 9.15647 4.84773 9.75263 4.25175C10.3488 3.65577 11.157 3.32062 12 3.31982C12.8429 3.32062 13.651 3.6558 14.247 4.25181C14.843 4.84781 15.1782 5.65594 15.179 6.49882H8.82ZM18.599 6.49882H17.179C17.1777 5.12567 16.6316 3.80914 15.6606 2.83818C14.6897 1.86722 13.3731 1.32115 12 1.31982C10.6268 1.32115 9.31012 1.86718 8.339 2.83812C7.36788 3.80905 6.82159 5.12558 6.82 6.49882H5.4C4.76348 6.49882 4.15303 6.75168 3.70294 7.20177C3.25286 7.65186 3 8.2623 3 8.89882V19.0988C3 19.7353 3.25286 20.3458 3.70294 20.7959C4.15303 21.246 4.76348 21.4988 5.4 21.4988H18.599C18.9143 21.499 19.2265 21.437 19.5177 21.3164C19.809 21.1959 20.0737 21.0191 20.2967 20.7962C20.5197 20.5734 20.6965 20.3087 20.8172 20.0175C20.9379 19.7262 21 19.4141 21 19.0988V8.89882C21 8.58357 20.9379 8.2714 20.8172 7.98015C20.6965 7.68891 20.5197 7.42429 20.2967 7.20141C20.0737 6.97854 19.809 6.80178 19.5177 6.68123C19.2265 6.56067 18.9143 6.49869 18.599 6.49882Z" fill="#8B95A1"/>
</g>
</svg>
