<svg width="24" height="24" viewBox="0 0 24 24" fill="none" xmlns="http://www.w3.org/2000/svg">
<g id="icon-loudspeaker-mono">
<path id="Vector" fill-rule="evenodd" clip-rule="evenodd" d="M16.5172 2.15008L6.03518 7.53708H2.92118C2.35118 7.53708 1.88818 8.00008 1.88818 8.57008V15.4301C1.88818 16.0001 2.35118 16.4631 2.92118 16.4631H6.03518L16.5172 21.8501C16.6697 21.9284 16.8397 21.9663 17.011 21.9599C17.1824 21.9536 17.3492 21.9034 17.4955 21.814C17.6418 21.7246 17.7626 21.5992 17.8465 21.4496C17.9303 21.3001 17.9743 21.1315 17.9742 20.9601V3.04008C17.9743 2.86865 17.9303 2.70008 17.8465 2.55054C17.7626 2.40101 17.6418 2.27553 17.4955 2.18617C17.3492 2.0968 17.1824 2.04655 17.011 2.04023C16.8397 2.03391 16.6697 2.07174 16.5172 2.15008ZM21.2362 9.16708H19.2802V14.8331H21.2352C21.9592 14.8331 22.5452 14.2461 22.5452 13.5221V10.4791C22.5452 9.75408 21.9592 9.16708 21.2352 9.16708" fill="#8B95A1"/>
</g>
</svg>
