<svg width="24" height="24" viewBox="0 0 24 24" fill="none" xmlns="http://www.w3.org/2000/svg">
<g id="icon-map-mono">
<g id="Group">
<path id="Vector" fill-rule="evenodd" clip-rule="evenodd" d="M22.3599 20.8401L18.9229 16.0301C18.639 15.6359 18.2274 15.3522 17.7579 15.2271L17.7039 15.2921C16.8089 16.3521 15.6709 17.5421 14.1209 19.0401C13.5524 19.5901 12.7919 19.8968 12.0009 19.8951C11.2103 19.8973 10.4501 19.5909 9.88194 19.0411C8.29994 17.5111 7.14394 16.2981 6.24194 15.2241C5.76831 15.3471 5.35263 15.6319 5.06694 16.0291L1.62994 20.8401C1.51786 20.9971 1.45121 21.182 1.4373 21.3744C1.4234 21.5669 1.46277 21.7594 1.55111 21.9309C1.63945 22.1024 1.77333 22.2463 1.93807 22.3467C2.1028 22.4471 2.29201 22.5002 2.48494 22.5001H21.5049C22.3589 22.5001 22.8549 21.5351 22.3589 20.8401" fill="currentColor"/>
<path id="Vector_2" fill-rule="evenodd" clip-rule="evenodd" d="M11.9997 6.30219C12.266 6.29611 12.5309 6.34329 12.7788 6.44097C13.0266 6.53866 13.2525 6.68488 13.443 6.87104C13.6336 7.05721 13.785 7.27957 13.8885 7.52507C13.9919 7.77057 14.0453 8.03427 14.0454 8.30067C14.0455 8.56708 13.9925 8.83083 13.8893 9.07643C13.7861 9.32204 13.6348 9.54455 13.4444 9.73091C13.2541 9.91726 13.0284 10.0637 12.7806 10.1616C12.5329 10.2596 12.268 10.307 12.0017 10.3012C11.4713 10.3013 10.9625 10.0907 10.5873 9.71576C10.2122 9.34078 10.0013 8.83213 10.0012 8.30169C10.0011 7.77126 10.2117 7.2625 10.5866 6.88733C10.9616 6.51217 11.4703 6.30133 12.0007 6.30119M11.2727 17.6032C11.469 17.7909 11.7303 17.8956 12.0019 17.8955C12.2736 17.8953 12.5346 17.7902 12.7307 17.6022C17.3487 13.1402 18.8027 10.9022 18.8027 8.30219C18.8027 3.89819 14.6157 0.471195 10.0057 1.78419C7.09571 2.61419 5.19971 5.27619 5.19971 8.30219C5.19971 10.9042 6.65471 13.1412 11.2727 17.6022" fill="currentColor"/>
</g>
</g>
</svg>
