<svg width="24" height="24" viewBox="0 0 24 24" fill="none" xmlns="http://www.w3.org/2000/svg">
<g id="icon-medal-check-mono">
<path id="Vector" fill-rule="evenodd" clip-rule="evenodd" d="M16.6368 8.67322L11.0368 14.2732L7.36384 10.6002C7.20697 10.4291 7.12222 10.204 7.12727 9.97184C7.13232 9.73972 7.22678 9.51851 7.39095 9.35434C7.55513 9.19016 7.77633 9.0957 8.00845 9.09065C8.24057 9.0856 8.46568 9.17035 8.63684 9.32722L11.0368 11.7272L15.3638 7.40022C15.4474 7.31664 15.5467 7.25033 15.6559 7.20509C15.7651 7.15986 15.8821 7.13657 16.0003 7.13657C16.1185 7.13657 16.2356 7.15986 16.3448 7.20509C16.454 7.25033 16.5533 7.31664 16.6368 7.40022C16.7204 7.48381 16.7867 7.58304 16.832 7.69225C16.8772 7.80146 16.9005 7.91851 16.9005 8.03672C16.9005 8.15493 16.8772 8.27198 16.832 8.38119C16.7867 8.4904 16.7204 8.58964 16.6368 8.67322ZM21.1468 10.5702C21.2406 10.4765 21.2932 10.3493 21.2932 10.2167C21.2932 10.0841 21.2406 9.95699 21.1468 9.86322L19.6968 8.41322C19.6347 8.35123 19.59 8.2739 19.5673 8.18908C19.5447 8.10426 19.5449 8.01496 19.5678 7.93022L20.0978 5.95022C20.132 5.82212 20.1139 5.68569 20.0476 5.57092C19.9812 5.45615 19.8719 5.37245 19.7438 5.33822L17.7638 4.80822C17.6788 4.78545 17.6013 4.74063 17.5391 4.6783C17.477 4.61596 17.4324 4.53832 17.4098 4.45322L16.8798 2.47322C16.8454 2.34506 16.7615 2.2358 16.6466 2.16943C16.5316 2.10306 16.3951 2.085 16.2668 2.11922L14.2858 2.65022C14.2012 2.67289 14.112 2.67281 14.0274 2.64998C13.9427 2.62715 13.8656 2.58239 13.8038 2.52022L12.3538 1.07022C12.2601 0.976486 12.1329 0.923828 12.0003 0.923828C11.8678 0.923828 11.7406 0.976486 11.6468 1.07022L10.1968 2.52122C10.1348 2.58331 10.0575 2.62799 9.97272 2.65081C9.88796 2.67363 9.79868 2.67377 9.71384 2.65122L7.73384 2.11922C7.67034 2.10214 7.6041 2.09775 7.53891 2.10631C7.47372 2.11486 7.41085 2.13619 7.35391 2.16907C7.29697 2.20195 7.24708 2.24574 7.20708 2.29793C7.16709 2.35012 7.13778 2.40969 7.12084 2.47322L6.58984 4.45322C6.56724 4.53801 6.52272 4.61537 6.46076 4.67751C6.3988 4.73964 6.32157 4.78438 6.23684 4.80722L4.25584 5.33822C4.12794 5.37267 4.01893 5.45646 3.95274 5.5712C3.88656 5.68594 3.86861 5.82226 3.90284 5.95022L4.43284 7.93022C4.45582 8.01496 4.45599 8.10426 4.43334 8.18908C4.41069 8.2739 4.36601 8.35123 4.30384 8.41322L2.85384 9.86322C2.80731 9.90958 2.77039 9.96467 2.74519 10.0253C2.72 10.086 2.70703 10.151 2.70703 10.2167C2.70703 10.2824 2.72 10.3474 2.74519 10.4081C2.77039 10.4688 2.80731 10.5239 2.85384 10.5702L4.30384 12.0202C4.36601 12.0824 4.41067 12.1599 4.43332 12.2449C4.45597 12.3299 4.4558 12.4193 4.43284 12.5042L3.90284 14.4842C3.86861 14.6122 3.88656 14.7485 3.95274 14.8632C4.01893 14.978 4.12794 15.0618 4.25584 15.0962L6.23684 15.6272C6.32157 15.6501 6.3988 15.6948 6.46076 15.7569C6.52272 15.8191 6.56724 15.8964 6.58984 15.9812L7.11984 17.9612C7.13738 18.0254 7.16755 18.0854 7.20859 18.1378C7.24963 18.1902 7.30071 18.2338 7.35884 18.2662L5.49784 23.2832H10.6808L11.9998 19.7252L13.3208 23.2832H18.5028L16.6418 18.2662C16.7 18.234 16.751 18.1903 16.7919 18.1379C16.8328 18.0855 16.8627 18.0254 16.8798 17.9612L17.4098 15.9812C17.4324 15.8963 17.4771 15.8188 17.5392 15.7566C17.6014 15.6945 17.6789 15.6498 17.7638 15.6272L19.7438 15.0972C19.8074 15.0803 19.8669 15.051 19.9191 15.011C19.9713 14.971 20.0151 14.9211 20.048 14.8642C20.0809 14.8072 20.1022 14.7443 20.1108 14.6792C20.1193 14.614 20.1149 14.5477 20.0978 14.4842L19.5678 12.5042C19.5449 12.4195 19.5447 12.3302 19.5673 12.2454C19.59 12.1605 19.6347 12.0832 19.6968 12.0212L21.1468 10.5712V10.5702Z" fill="#8B95A1"/>
</g>
</svg>
