<svg width="24" height="24" viewBox="0 0 24 24" fill="none" xmlns="http://www.w3.org/2000/svg">
<g id="icon-metal-mono">
<path id="Vector" fill-rule="evenodd" clip-rule="evenodd" d="M4.704 20.938C4.49341 21.1488 4.20775 21.2672 3.90985 21.2673C3.61195 21.2674 3.32621 21.1491 3.1155 20.9385C2.90478 20.728 2.78635 20.4423 2.78626 20.1444C2.78616 19.8465 2.90441 19.5608 3.115 19.35C3.32558 19.1393 3.61124 19.0209 3.90914 19.0208C4.05665 19.0208 4.20272 19.0498 4.33901 19.1062C4.47531 19.1626 4.59916 19.2453 4.7035 19.3495C4.80783 19.4538 4.89061 19.5776 4.9471 19.7139C5.00359 19.8501 5.03269 19.9962 5.03274 20.1437C5.03278 20.2912 5.00377 20.4373 4.94737 20.5736C4.89096 20.7099 4.80827 20.8337 4.704 20.938ZM22.78 5.73304C22.7589 5.64607 22.7151 5.56628 22.653 5.50186C22.5909 5.43744 22.5128 5.39071 22.4266 5.36648C22.3405 5.34225 22.2495 5.34138 22.1629 5.36398C22.0763 5.38657 21.9973 5.43181 21.934 5.49504L19.235 8.19304L16.298 7.64904L15.753 4.71104L18.452 2.01104C18.5147 1.94757 18.5594 1.86864 18.5817 1.78227C18.6039 1.6959 18.6029 1.60518 18.5787 1.51933C18.5545 1.43348 18.5081 1.35556 18.444 1.29351C18.3799 1.23145 18.3006 1.18747 18.214 1.16604C17.1918 0.922873 16.1244 0.945566 15.1134 1.23195C14.1025 1.51834 13.1818 2.05888 12.439 2.80204C11.5531 3.68915 10.9594 4.8257 10.7372 6.05955C10.5151 7.2934 10.6752 8.56566 11.196 9.70604L1.93 18.22C1.66338 18.474 1.45025 18.7787 1.30315 19.1162C1.15605 19.4538 1.07795 19.8173 1.07345 20.1855C1.06895 20.5537 1.13813 20.919 1.27693 21.2601C1.41573 21.6011 1.62134 21.911 1.88167 22.1714C2.142 22.4317 2.45178 22.6374 2.79278 22.7763C3.13378 22.9152 3.49912 22.9845 3.8673 22.9801C4.23548 22.9757 4.59905 22.8977 4.93663 22.7507C5.27421 22.6036 5.57898 22.3906 5.833 22.124L14.386 12.817C15.4336 13.2624 16.5842 13.4085 17.7098 13.239C18.8354 13.0694 19.8919 12.591 20.7619 11.8568C21.6318 11.1227 22.281 10.1616 22.6373 9.08045C22.9936 7.99932 23.043 6.84056 22.78 5.73304Z" fill="currentColor"/>
</g>
</svg>
