<svg width="24" height="24" viewBox="0 0 24 24" fill="none" xmlns="http://www.w3.org/2000/svg">
<g id="icon-mic-mono" clip-path="url(#clip0_66_2184)">
<g id="Group">
<path id="Vector" fill-rule="evenodd" clip-rule="evenodd" d="M12 0.611816C10.8065 0.611816 9.66193 1.08592 8.81802 1.92984C7.97411 2.77375 7.5 3.91834 7.5 5.11182V11.3148C7.5 12.5083 7.97411 13.6529 8.81802 14.4968C9.66193 15.3407 10.8065 15.8148 12 15.8148C13.1935 15.8148 14.3381 15.3407 15.182 14.4968C16.0259 13.6529 16.5 12.5083 16.5 11.3148V5.11182C16.5 3.91834 16.0259 2.77375 15.182 1.92984C14.3381 1.08592 13.1935 0.611816 12 0.611816Z" fill="#8B95A1"/>
<path id="Vector_2" fill-rule="evenodd" clip-rule="evenodd" d="M20.6009 11.3149C20.6009 11.0497 20.4955 10.7954 20.308 10.6078C20.1205 10.4203 19.8661 10.3149 19.6009 10.3149C19.3357 10.3149 19.0813 10.4203 18.8938 10.6078C18.7063 10.7954 18.6009 11.0497 18.6009 11.3149C18.599 13.0651 17.903 14.743 16.6655 15.9805C15.4279 17.218 13.75 17.9141 11.9999 17.9159C10.2501 17.9138 8.57262 17.2178 7.33534 15.9805C6.09805 14.7432 5.40202 13.0657 5.3999 11.3159C5.3999 11.0507 5.29455 10.7964 5.10701 10.6088C4.91947 10.4213 4.66512 10.3159 4.3999 10.3159C4.13469 10.3159 3.88033 10.4213 3.6928 10.6088C3.50526 10.7964 3.3999 11.0507 3.3999 11.3159C3.3999 15.7189 6.7279 19.3559 10.9999 19.8529V22.9999C10.9999 23.2652 11.1053 23.5195 11.2928 23.707C11.4803 23.8946 11.7347 23.9999 11.9999 23.9999C12.2651 23.9999 12.5195 23.8946 12.707 23.707C12.8945 23.5195 12.9999 23.2652 12.9999 22.9999V19.8529C17.2729 19.3549 20.6009 15.7189 20.6009 11.3149Z" fill="#8B95A1"/>
</g>
</g>
<defs>
<clipPath id="clip0_66_2184">
<rect width="24" height="24" fill="white"/>
</clipPath>
</defs>
</svg>
