<svg width="24" height="24" viewBox="0 0 24 24" fill="none" xmlns="http://www.w3.org/2000/svg">
<g id="icon-money-out-mono">
<path id="Vector" fill-rule="evenodd" clip-rule="evenodd" d="M18.0001 13.2998H15.9131L15.1721 15.9918C15.115 16.205 14.9888 16.3932 14.8133 16.5269C14.6377 16.6606 14.4228 16.7323 14.2021 16.7308C13.9815 16.7325 13.7666 16.6608 13.5912 16.527C13.4158 16.3932 13.2898 16.205 13.2331 15.9918L12.0001 11.5138L10.7681 15.9918C10.7112 16.2049 10.5852 16.393 10.4098 16.5268C10.2344 16.6605 10.0196 16.7323 9.7991 16.7308H9.7981C9.57756 16.7324 9.36271 16.6608 9.18719 16.5273C9.01167 16.3937 8.88539 16.2058 8.8281 15.9928L8.0871 13.2998H6.0001C5.78792 13.2998 5.58444 13.2155 5.43441 13.0655C5.28438 12.9155 5.2001 12.712 5.2001 12.4998C5.2001 12.2876 5.28438 12.0841 5.43441 11.9341C5.58444 11.7841 5.78792 11.6998 6.0001 11.6998H7.6461L6.9811 9.2808C6.9495 9.17842 6.93879 9.07074 6.94961 8.96414C6.96042 8.85754 6.99254 8.7542 7.04406 8.66025C7.09557 8.56631 7.16543 8.48366 7.2495 8.41723C7.33356 8.3508 7.43011 8.30193 7.53342 8.27352C7.63673 8.24511 7.7447 8.23775 7.85091 8.25186C7.95712 8.26597 8.05941 8.30128 8.15172 8.35568C8.24402 8.41008 8.32446 8.48247 8.38826 8.56856C8.45205 8.65464 8.49791 8.75266 8.5231 8.8568L9.7981 13.4858L11.0301 9.0078C11.0872 8.79464 11.2134 8.60645 11.3889 8.47271C11.5645 8.33898 11.7794 8.26726 12.0001 8.2688C12.4581 8.2688 12.8481 8.5658 12.9701 9.0078L14.2021 13.4858L15.4771 8.8568C15.5333 8.65219 15.6685 8.47829 15.853 8.37336C15.9443 8.32141 16.045 8.28795 16.1492 8.2749C16.2535 8.26185 16.3593 8.26946 16.4606 8.2973C16.5619 8.32514 16.6568 8.37266 16.7397 8.43716C16.8226 8.50165 16.8921 8.58185 16.944 8.67317C16.996 8.7645 17.0294 8.86517 17.0425 8.96942C17.0555 9.07368 17.0479 9.17949 17.0201 9.2808L16.3541 11.6998H18.0001C18.1052 11.6998 18.2092 11.7205 18.3062 11.7607C18.4033 11.8009 18.4915 11.8598 18.5658 11.9341C18.6401 12.0084 18.699 12.0966 18.7392 12.1937C18.7794 12.2907 18.8001 12.3947 18.8001 12.4998C18.8001 12.6049 18.7794 12.7089 18.7392 12.8059C18.699 12.903 18.6401 12.9912 18.5658 13.0655C18.4915 13.1398 18.4033 13.1987 18.3062 13.2389C18.2092 13.2791 18.1052 13.2998 18.0001 13.2998ZM21.0001 1.9458H3.0001C2.7614 1.9458 2.53248 2.04062 2.3637 2.2094C2.19492 2.37819 2.1001 2.60711 2.1001 2.8458C2.1001 3.0845 2.19492 3.31341 2.3637 3.4822C2.53248 3.65098 2.7614 3.7458 3.0001 3.7458V20.8458C3.0001 21.111 3.10545 21.3654 3.29299 21.5529C3.48053 21.7404 3.73488 21.8458 4.0001 21.8458H20.0001C20.2653 21.8458 20.5197 21.7404 20.7072 21.5529C20.8947 21.3654 21.0001 21.111 21.0001 20.8458V3.7458C21.2388 3.7458 21.4677 3.65098 21.6365 3.4822C21.8053 3.31341 21.9001 3.0845 21.9001 2.8458C21.9001 2.60711 21.8053 2.37819 21.6365 2.2094C21.4677 2.04062 21.2388 1.9458 21.0001 1.9458Z" fill="currentColor"/>
</g>
</svg>
