<svg width="24" height="24" viewBox="0 0 24 24" fill="none" xmlns="http://www.w3.org/2000/svg">
<g id="icon-open-mono">
<g id="Group">
<path id="Vector" fill-rule="evenodd" clip-rule="evenodd" d="M18.1609 21.6619H5.83789C3.90889 21.6619 2.33789 20.0919 2.33789 18.1619V5.83887C2.33789 3.90887 3.90889 2.33887 5.83789 2.33887H8.87789C9.16963 2.33887 9.44942 2.45476 9.65571 2.66105C9.862 2.86734 9.97789 3.14713 9.97789 3.43887C9.97789 3.73061 9.862 4.01039 9.65571 4.21668C9.44942 4.42297 9.16963 4.53887 8.87789 4.53887H5.83789C5.12089 4.53887 4.53789 5.12187 4.53789 5.83887V18.1619C4.53789 18.8779 5.12089 19.4619 5.83789 19.4619H18.1609C18.8779 19.4619 19.4609 18.8779 19.4609 18.1619V15.1189C19.4609 14.8271 19.5768 14.5473 19.7831 14.3411C19.9894 14.1348 20.2692 14.0189 20.5609 14.0189C20.8526 14.0189 21.1324 14.1348 21.3387 14.3411C21.545 14.5473 21.6609 14.8271 21.6609 15.1189V18.1619C21.6609 20.0919 20.0909 21.6619 18.1609 21.6619Z" fill="#8B95A1"/>
<path id="Vector_2" fill-rule="evenodd" clip-rule="evenodd" d="M12.1907 12.9089C11.9731 12.9089 11.7603 12.8444 11.5794 12.7236C11.3984 12.6027 11.2574 12.4309 11.1741 12.2299C11.0908 12.0288 11.069 11.8076 11.1115 11.5942C11.154 11.3807 11.2588 11.1847 11.4127 11.0309L19.7827 2.66085C19.8844 2.55653 20.0058 2.47344 20.1398 2.41641C20.2738 2.35938 20.4179 2.32955 20.5636 2.32863C20.7092 2.32772 20.8536 2.35575 20.9884 2.4111C21.1231 2.46645 21.2455 2.54801 21.3485 2.65105C21.4515 2.75409 21.533 2.87655 21.5882 3.01134C21.6435 3.14612 21.6714 3.29054 21.6704 3.43621C21.6694 3.58188 21.6395 3.7259 21.5824 3.85991C21.5252 3.99391 21.4421 4.11524 21.3377 4.21685L12.9687 12.5869C12.8668 12.6891 12.7457 12.7702 12.6123 12.8254C12.479 12.8807 12.336 12.909 12.1917 12.9089" fill="#8B95A1"/>
<path id="Vector_3" fill-rule="evenodd" clip-rule="evenodd" d="M20.561 11.9389C20.2693 11.9389 19.9895 11.823 19.7832 11.6167C19.5769 11.4104 19.461 11.1306 19.461 10.8389V4.53887H13.161C12.8693 4.53887 12.5895 4.42297 12.3832 4.21668C12.1769 4.01039 12.061 3.73061 12.061 3.43887C12.061 3.14713 12.1769 2.86734 12.3832 2.66105C12.5895 2.45476 12.8693 2.33887 13.161 2.33887H20.561C20.8528 2.33887 21.1326 2.45476 21.3389 2.66105C21.5451 2.86734 21.661 3.14713 21.661 3.43887V10.8389C21.661 11.1306 21.5451 11.4104 21.3389 11.6167C21.1326 11.823 20.8528 11.9389 20.561 11.9389Z" fill="#8B95A1"/>
</g>
</g>
</svg>
