<svg width="24" height="24" viewBox="0 0 24 24" fill="none" xmlns="http://www.w3.org/2000/svg">
<g id="icon-out-mono">
<g id="Group">
<path id="Vector (Stroke)" fill-rule="evenodd" clip-rule="evenodd" d="M1.1001 12.0121C1.1001 11.4046 1.59258 10.9121 2.2001 10.9121H13.9291C14.5366 10.9121 15.0291 11.4046 15.0291 12.0121C15.0291 12.6196 14.5366 13.1121 13.9291 13.1121H2.2001C1.59258 13.1121 1.1001 12.6196 1.1001 12.0121Z" fill="currentColor"/>
<path id="Vector (Stroke)_2" fill-rule="evenodd" clip-rule="evenodd" d="M8.21106 6.00251C8.64056 6.43217 8.64043 7.12865 8.21077 7.55814L3.75588 12.0113L8.21091 16.4664C8.64049 16.8959 8.64049 17.5924 8.21092 18.022C7.78134 18.4516 7.08486 18.4516 6.65528 18.022L1.42228 12.789C1.21596 12.5827 1.10007 12.3028 1.1001 12.0111C1.10013 11.7193 1.21607 11.4395 1.42243 11.2332L6.65543 6.00221C7.08509 5.57272 7.78157 5.57285 8.21106 6.00251Z" fill="currentColor"/>
<path id="Vector (Stroke)_3" fill-rule="evenodd" clip-rule="evenodd" d="M14.2373 4.72002C13.8925 4.72002 13.5619 4.85698 13.3181 5.10078C13.0743 5.34458 12.9373 5.67524 12.9373 6.02002V7.71402C12.9373 8.32153 12.4448 8.81402 11.8373 8.81402C11.2298 8.81402 10.7373 8.32153 10.7373 7.71402V6.02002C10.7373 5.09176 11.1061 4.20152 11.7624 3.54515C12.4188 2.88877 13.309 2.52002 14.2373 2.52002H18.6853C19.6136 2.52002 20.5038 2.88877 21.1602 3.54515C21.8166 4.20152 22.1853 5.09176 22.1853 6.02002V18.005C22.1849 18.933 21.816 19.8233 21.1597 20.4794C20.5033 21.1355 19.6133 21.504 18.6853 21.504H14.2373C13.309 21.504 12.4188 21.1353 11.7624 20.4789C11.1061 19.8225 10.7373 18.9323 10.7373 18.004V16.314C10.7373 15.7065 11.2298 15.214 11.8373 15.214C12.4448 15.214 12.9373 15.7065 12.9373 16.314V18.004C12.9373 18.3488 13.0743 18.6795 13.3181 18.9233C13.5619 19.1671 13.8925 19.304 14.2373 19.304H18.6853C19.03 19.304 19.3606 19.1671 19.6044 18.9234C19.8481 18.6798 19.9852 18.3492 19.9853 18.0046V6.02002C19.9853 5.67524 19.8483 5.34458 19.6045 5.10078C19.3607 4.85698 19.0301 4.72002 18.6853 4.72002H14.2373Z" fill="currentColor"/>
</g>
</g>
</svg>
