<svg width="24" height="24" viewBox="0 0 24 24" fill="none" xmlns="http://www.w3.org/2000/svg">
<g id="icon-percent-circle-mono">
<g id="Group">
<path id="Vector" fill-rule="evenodd" clip-rule="evenodd" d="M14.9231 14.1228C14.8228 14.1192 14.7227 14.1359 14.629 14.1718C14.5352 14.2077 14.4497 14.2622 14.3775 14.3319C14.3052 14.4017 14.2478 14.4852 14.2086 14.5777C14.1694 14.6701 14.1492 14.7695 14.1493 14.8699C14.1494 14.9703 14.1697 15.0696 14.209 15.162C14.2483 15.2544 14.3059 15.3379 14.3782 15.4075C14.4505 15.4771 14.5361 15.5315 14.6299 15.5673C14.7237 15.6031 14.8238 15.6196 14.9241 15.6158C15.1174 15.6086 15.3003 15.5268 15.4344 15.3875C15.5685 15.2481 15.6434 15.0622 15.6433 14.8689C15.6432 14.6755 15.568 14.4897 15.4337 14.3505C15.2994 14.2114 15.1164 14.1298 14.9231 14.1228ZM9.82311 9.02285C9.82671 8.92251 9.81006 8.82248 9.77413 8.72873C9.73821 8.63498 9.68375 8.54944 9.61402 8.4772C9.54429 8.40497 9.46072 8.34754 9.36829 8.30833C9.27587 8.26913 9.17649 8.24896 9.07609 8.24902C8.97569 8.24909 8.87634 8.2694 8.78396 8.30872C8.69159 8.34805 8.60809 8.4056 8.53846 8.47792C8.46883 8.55025 8.41449 8.63587 8.37869 8.72967C8.34289 8.82347 8.32637 8.92352 8.33011 9.02385C8.33718 9.2171 8.41893 9.40008 8.55815 9.5343C8.69737 9.66852 8.88322 9.74352 9.07661 9.74352C9.26999 9.74352 9.45584 9.66852 9.59507 9.5343C9.73429 9.40008 9.81603 9.2171 9.82311 9.02385" fill="#8B95A1"/>
<path id="Vector_2" fill-rule="evenodd" clip-rule="evenodd" d="M14.923 17.214C14.301 17.2135 13.7046 16.9661 13.2647 16.5263C12.8249 16.0864 12.5775 15.49 12.577 14.868C12.5778 14.2461 12.8252 13.65 13.2651 13.2104C13.7049 12.7707 14.3011 12.5235 14.923 12.523C15.5448 12.5238 16.1409 12.7711 16.5806 13.2107C17.0204 13.6502 17.2679 14.2462 17.269 14.868C17.2682 15.49 17.0208 16.0862 16.581 16.526C16.1412 16.9658 15.545 17.2132 14.923 17.214ZM8.994 16.083C8.91967 16.1573 8.83144 16.2162 8.73435 16.2563C8.63727 16.2965 8.53322 16.3171 8.42815 16.3171C8.32308 16.317 8.21905 16.2963 8.12199 16.2561C8.02494 16.2158 7.93676 16.1568 7.8625 16.0825C7.78824 16.0082 7.72934 15.9199 7.68918 15.8229C7.64901 15.7258 7.62836 15.6217 7.62841 15.5166C7.62846 15.4116 7.6492 15.3075 7.68945 15.2105C7.7297 15.1134 7.78867 15.0253 7.863 14.951L15.006 7.808C15.159 7.67297 15.3577 7.60133 15.5617 7.60769C15.7656 7.61404 15.9595 7.69791 16.1038 7.8422C16.2481 7.98649 16.332 8.18036 16.3383 8.38433C16.3447 8.58829 16.273 8.787 16.138 8.94L8.994 16.083ZM6.732 9.023C6.73279 8.40122 6.98008 7.80512 7.41965 7.36536C7.85922 6.9256 8.45522 6.67806 9.077 6.677C9.69905 6.67779 10.2954 6.92518 10.7354 7.36494C11.1753 7.8047 11.4229 8.40095 11.424 9.023C11.4232 9.64513 11.1756 10.2415 10.7356 10.6813C10.2956 11.1212 9.69913 11.3685 9.077 11.369C8.45514 11.3682 7.85899 11.1208 7.41936 10.6809C6.97973 10.2411 6.73253 9.64486 6.732 9.023ZM12 1C5.925 1 1 5.924 1 12C1 18.075 5.925 23 12 23C18.075 23 23 18.075 23 12C23 5.924 18.075 1 12 1Z" fill="#8B95A1"/>
</g>
</g>
</svg>
