<svg width="24" height="24" viewBox="0 0 24 24" fill="none" xmlns="http://www.w3.org/2000/svg">
<g id="icon-picture-mono">
<path id="Vector" fill-rule="evenodd" clip-rule="evenodd" d="M16.003 10.668C15.7647 10.6736 15.5277 10.6314 15.3059 10.5441C15.0841 10.4567 14.8821 10.3259 14.7116 10.1593C14.5411 9.99272 14.4057 9.79372 14.3132 9.57402C14.2207 9.35432 14.1732 9.11835 14.1732 8.87999C14.1733 8.64163 14.221 8.40568 14.3136 8.18604C14.4062 7.96639 14.5417 7.76747 14.7123 7.60097C14.8829 7.43448 15.085 7.30377 15.3069 7.21653C15.5287 7.1293 15.7657 7.0873 16.004 7.093C16.4708 7.10417 16.9146 7.29747 17.2407 7.63158C17.5669 7.96569 17.7494 8.4141 17.7492 8.88099C17.7491 9.34787 17.5663 9.79619 17.24 10.1301C16.9137 10.464 16.4698 10.6571 16.003 10.668ZM14.279 16.78H8.255C8.04261 16.7803 7.83407 16.7233 7.6513 16.6152C7.46853 16.507 7.31828 16.3515 7.21637 16.1652C7.11445 15.9789 7.06462 15.7685 7.07212 15.5562C7.07963 15.344 7.14418 15.1377 7.259 14.959L10.272 10.264C10.3789 10.097 10.5261 9.95955 10.7001 9.86435C10.8741 9.76916 11.0692 9.71926 11.2675 9.71926C11.4658 9.71926 11.6609 9.76916 11.8349 9.86435C12.0089 9.95955 12.1561 10.097 12.263 10.264L15.274 14.959C15.3888 15.1376 15.4533 15.3438 15.4609 15.556C15.4684 15.7682 15.4187 15.9785 15.3169 16.1648C15.2151 16.3511 15.065 16.5065 14.8823 16.6148C14.6997 16.723 14.4913 16.7801 14.279 16.78ZM19.287 2.25H4.713C4.05977 2.25 3.4333 2.50949 2.9714 2.9714C2.50949 3.4333 2.25 4.05977 2.25 4.713V19.287C2.25 19.9402 2.50949 20.5667 2.9714 21.0286C3.4333 21.4905 4.05977 21.75 4.713 21.75H19.287C19.9402 21.75 20.5667 21.4905 21.0286 21.0286C21.4905 20.5667 21.75 19.9402 21.75 19.287V4.713C21.75 4.05977 21.4905 3.4333 21.0286 2.9714C20.5667 2.50949 19.9402 2.25 19.287 2.25Z" fill="currentColor"/>
</g>
</svg>
