<svg width="24" height="24" viewBox="0 0 24 24" fill="none" xmlns="http://www.w3.org/2000/svg">
<g id="icon-pin-location-mono">
<path id="Vector" fill-rule="evenodd" clip-rule="evenodd" d="M12.0002 12.7421C11.6394 12.749 11.281 12.6839 10.9457 12.5507C10.6104 12.4174 10.305 12.2186 10.0475 11.966C9.78994 11.7133 9.58534 11.4119 9.44568 11.0792C9.30601 10.7465 9.23407 10.3894 9.23407 10.0286C9.23407 9.66778 9.30601 9.31061 9.44568 8.97795C9.58534 8.64529 9.78994 8.34381 10.0475 8.09115C10.305 7.8385 10.6104 7.63973 10.9457 7.50647C11.281 7.37321 11.6394 7.30815 12.0002 7.31507C12.7108 7.32871 13.3877 7.6206 13.8855 8.12799C14.3832 8.63539 14.6621 9.3178 14.6621 10.0286C14.6621 10.7393 14.3832 11.4218 13.8855 11.9292C13.3877 12.4365 12.7108 12.7284 12.0002 12.7421ZM9.87617 1.03707C5.60617 1.99007 2.61217 6.00907 2.78017 10.3811C2.91217 13.8151 5.01917 16.8871 11.2882 22.9141C11.6842 23.2941 12.3182 23.2961 12.7152 22.9151C19.1992 16.6821 21.2312 13.6101 21.2312 10.0281C21.2312 4.23807 15.8982 -0.306928 9.87617 1.03807" fill="#8B95A1"/>
</g>
</svg>
