<svg width="24" height="24" viewBox="0 0 24 24" fill="none" xmlns="http://www.w3.org/2000/svg">
<g id="icon-pin-mono">
<path id="Vector" fill-rule="evenodd" clip-rule="evenodd" d="M21.0791 5.31001L12.9891 0.640013C12.8328 0.549872 12.6555 0.502428 12.475 0.502441C12.2945 0.502455 12.1173 0.549924 11.961 0.640088C11.8046 0.730252 11.6748 0.85994 11.5844 1.01614C11.494 1.17234 11.4463 1.34956 11.4461 1.53001V2.97001C11.4463 3.8724 11.2089 4.75893 10.7577 5.54045C10.3066 6.32196 9.65762 6.97091 8.87608 7.42201L2.92308 10.86C2.7667 10.9502 2.63683 11.08 2.54653 11.2363C2.45623 11.3926 2.40869 11.57 2.40869 11.7505C2.40869 11.931 2.45623 12.1084 2.54653 12.2647C2.63683 12.421 2.7667 12.5508 2.92308 12.641L8.31808 15.755C8.27108 15.81 8.21408 15.851 8.17808 15.915L4.72208 21.9C4.56981 22.1752 4.53164 22.4991 4.61577 22.8021C4.69989 23.1051 4.8996 23.363 5.17193 23.5202C5.44425 23.6775 5.76742 23.7216 6.07192 23.643C6.37641 23.5644 6.63788 23.3694 6.80008 23.1L10.2561 17.116C10.2931 17.051 10.3001 16.981 10.3231 16.914L15.7191 20.028C15.8753 20.1182 16.0526 20.1657 16.233 20.1657C16.4134 20.1658 16.5907 20.1183 16.747 20.0281C16.9032 19.9379 17.033 19.8082 17.1233 19.6519C17.2135 19.4957 17.261 19.3184 17.2611 19.138V12.264C17.2611 10.427 18.2401 8.73001 19.8311 7.81201L21.0791 7.09201C21.2357 7.00189 21.3658 6.87207 21.4563 6.71564C21.5467 6.55922 21.5943 6.38171 21.5943 6.20101C21.5943 6.02032 21.5467 5.84281 21.4563 5.68638C21.3658 5.52996 21.2357 5.40014 21.0791 5.31001Z" fill="#8B95A1"/>
</g>
</svg>
