<svg width="24" height="24" viewBox="0 0 24 24" fill="none" xmlns="http://www.w3.org/2000/svg">
<g id="icon-play-mono" clip-path="url(#clip0_66_2225)">
<g id="Group">
<path id="Vector" fill-rule="evenodd" clip-rule="evenodd" d="M21.714 13.0879L8.046 21.9929C7.89509 22.0913 7.72041 22.1471 7.54042 22.1543C7.36044 22.1616 7.18183 22.1201 7.02346 22.0343C6.8651 21.9485 6.73286 21.8214 6.64072 21.6667C6.54858 21.5119 6.49996 21.3351 6.5 21.1549V3.34494C6.49996 3.16481 6.54858 2.98801 6.64072 2.83322C6.73286 2.67844 6.8651 2.55141 7.02346 2.46557C7.18183 2.37973 7.36044 2.33826 7.54042 2.34554C7.72041 2.35283 7.89509 2.40859 8.046 2.50694L21.714 11.4119C21.8535 11.5028 21.9681 11.627 22.0474 11.7733C22.1268 11.9197 22.1683 12.0835 22.1683 12.2499C22.1683 12.4164 22.1268 12.5802 22.0474 12.7266C21.9681 12.8729 21.8535 12.9971 21.714 13.0879Z" fill="currentColor"/>
</g>
</g>
<defs>
<clipPath id="clip0_66_2225">
<rect width="24" height="24" fill="white"/>
</clipPath>
</defs>
</svg>
