<svg width="24" height="24" viewBox="0 0 24 24" fill="none" xmlns="http://www.w3.org/2000/svg">
<g id="icon-point-circle-mono" clip-path="url(#clip0_66_2303)">
<g id="Group">
<path id="Vector" fill-rule="evenodd" clip-rule="evenodd" d="M13.3569 8.71484H10.9819V12.1088H13.3569C14.2929 12.1088 15.0539 11.3488 15.0539 10.4118C15.0539 9.47584 14.2939 8.71484 13.3569 8.71484Z" fill="currentColor"/>
<path id="Vector_2" fill-rule="evenodd" clip-rule="evenodd" d="M13.3568 14.1458H10.9818V16.8608C10.9677 17.1214 10.8542 17.3666 10.6647 17.546C10.4753 17.7255 10.2243 17.8255 9.9633 17.8255C9.70236 17.8255 9.45133 17.7255 9.26188 17.546C9.07242 17.3666 8.95895 17.1214 8.9448 16.8608V6.6778H13.3568C14.3469 6.67886 15.2961 7.07278 15.996 7.77305C16.6959 8.47333 17.0893 9.42273 17.0898 10.4128C17.0887 11.4025 16.6951 12.3514 15.9953 13.0513C15.2954 13.7511 14.3465 14.1447 13.3568 14.1458ZM11.9998 0.799805C5.8138 0.799805 0.799805 5.8148 0.799805 11.9998C0.799805 18.1858 5.8138 23.1998 11.9998 23.1998C18.1848 23.1998 23.1998 18.1858 23.1998 11.9998C23.1998 5.8148 18.1848 0.799805 11.9998 0.799805Z" fill="currentColor"/>
</g>
</g>
<defs>
<clipPath id="clip0_66_2303">
<rect width="24" height="24" fill="white"/>
</clipPath>
</defs>
</svg>
