<svg width="24" height="24" viewBox="0 0 24 24" fill="none" xmlns="http://www.w3.org/2000/svg">
<g id="icon-progress-gradient-mono">
<g id="Group">
<path id="Vector" fill-rule="evenodd" clip-rule="evenodd" d="M11.9999 1.3999C11.7082 1.3999 11.4284 1.51579 11.2221 1.72208C11.0158 1.92837 10.8999 2.20816 10.8999 2.4999V5.5419C10.8999 5.83364 11.0158 6.11343 11.2221 6.31972C11.4284 6.52601 11.7082 6.6419 11.9999 6.6419C12.2916 6.6419 12.5714 6.52601 12.7777 6.31972C12.984 6.11343 13.0999 5.83364 13.0999 5.5419V2.4999C13.0999 2.35545 13.0715 2.21241 13.0162 2.07895C12.9609 1.94549 12.8799 1.82423 12.7777 1.72208C12.6756 1.61994 12.5543 1.53892 12.4209 1.48363C12.2874 1.42835 12.1444 1.3999 11.9999 1.3999Z" fill="#8B95A1"/>
<path id="Vector_2" fill-rule="evenodd" clip-rule="evenodd" d="M6.65576 8.21076C6.75771 8.31332 6.87893 8.39471 7.01245 8.45025C7.14597 8.50579 7.28915 8.53438 7.43376 8.53438C7.57837 8.53438 7.72156 8.50579 7.85507 8.45025C7.98859 8.39471 8.10981 8.31332 8.21176 8.21076C8.41792 8.00433 8.53371 7.72451 8.53371 7.43276C8.53371 7.14102 8.41792 6.8612 8.21176 6.65476L6.05976 4.50476C5.85023 4.3157 5.57608 4.21431 5.29395 4.22155C5.01181 4.22879 4.74323 4.3441 4.54367 4.54367C4.3441 4.74323 4.22879 5.01181 4.22155 5.29395C4.21431 5.57608 4.3157 5.85023 4.50476 6.05976L6.65476 8.21076H6.65576Z" fill="#8B95A1" fill-opacity="0.16"/>
<path id="Vector_3" fill-rule="evenodd" clip-rule="evenodd" d="M6.6419 11.9999C6.6419 11.7082 6.52601 11.4284 6.31972 11.2221C6.11343 11.0158 5.83364 10.8999 5.5419 10.8999H2.4999C2.20816 10.8999 1.92837 11.0158 1.72208 11.2221C1.51579 11.4284 1.3999 11.7082 1.3999 11.9999C1.3999 12.2916 1.51579 12.5714 1.72208 12.7777C1.92837 12.984 2.20816 13.0999 2.4999 13.0999H5.5419C5.83364 13.0999 6.11343 12.984 6.31972 12.7777C6.52601 12.5714 6.6419 12.2916 6.6419 11.9999Z" fill="#8B95A1" fill-opacity="0.32"/>
<path id="Vector_4" fill-rule="evenodd" clip-rule="evenodd" d="M6.65588 15.7888L4.50488 17.9388C4.40271 18.0409 4.32166 18.1622 4.26637 18.2957C4.21108 18.4292 4.18262 18.5723 4.18262 18.7168C4.18262 18.8613 4.21108 19.0043 4.26637 19.1378C4.32166 19.2713 4.40271 19.3926 4.50488 19.4948C4.71121 19.7011 4.99107 19.817 5.28288 19.817C5.42736 19.817 5.57044 19.7886 5.70393 19.7333C5.83742 19.678 5.95871 19.597 6.06088 19.4948L8.21088 17.3448C8.40227 17.1356 8.50561 16.8607 8.49938 16.5773C8.49315 16.2939 8.37782 16.0237 8.17742 15.8232C7.97702 15.6227 7.70699 15.5072 7.42356 15.5008C7.14013 15.4944 6.86514 15.5975 6.65588 15.7888Z" fill="#8B95A1" fill-opacity="0.56"/>
<path id="Vector_5" fill-rule="evenodd" clip-rule="evenodd" d="M11.9999 17.3579C11.7082 17.3579 11.4284 17.4738 11.2221 17.6801C11.0158 17.8864 10.8999 18.1662 10.8999 18.4579V21.4999C10.8999 21.7916 11.0158 22.0714 11.2221 22.2777C11.4284 22.484 11.7082 22.5999 11.9999 22.5999C12.2916 22.5999 12.5714 22.484 12.7777 22.2777C12.984 22.0714 13.0999 21.7916 13.0999 21.4999V18.4579C13.0999 18.1662 12.984 17.8864 12.7777 17.6801C12.5714 17.4738 12.2916 17.3579 11.9999 17.3579Z" fill="#8B95A1" fill-opacity="0.56"/>
<path id="Vector_6" fill-rule="evenodd" clip-rule="evenodd" d="M17.3441 15.7891C17.2419 15.6869 17.1206 15.6058 16.9871 15.5505C16.8536 15.4953 16.7106 15.4668 16.5661 15.4668C16.4216 15.4668 16.2785 15.4953 16.145 15.5505C16.0115 15.6058 15.8902 15.6869 15.7881 15.7891C15.6859 15.8912 15.6049 16.0125 15.5496 16.146C15.4943 16.2795 15.4658 16.4226 15.4658 16.5671C15.4658 16.7115 15.4943 16.8546 15.5496 16.9881C15.6049 17.1216 15.6859 17.2429 15.7881 17.3451L17.9391 19.4951C18.0411 19.5975 18.1623 19.6788 18.2958 19.7342C18.4294 19.7897 18.5725 19.8183 18.7171 19.8183C18.8616 19.8183 19.0048 19.7897 19.1383 19.7342C19.2718 19.6788 19.3931 19.5975 19.4951 19.4951C19.5973 19.3929 19.6783 19.2716 19.7337 19.1381C19.789 19.0046 19.8174 18.8616 19.8174 18.7171C19.8174 18.5726 19.789 18.4295 19.7337 18.296C19.6783 18.1625 19.5973 18.0412 19.4951 17.9391L17.3451 15.7891H17.3441Z" fill="#8B95A1" fill-opacity="0.72"/>
<path id="Vector_7" fill-rule="evenodd" clip-rule="evenodd" d="M21.4999 10.8999H18.4579C18.1662 10.8999 17.8864 11.0158 17.6801 11.2221C17.4738 11.4284 17.3579 11.7082 17.3579 11.9999C17.3579 12.2916 17.4738 12.5714 17.6801 12.7777C17.8864 12.984 18.1662 13.0999 18.4579 13.0999H21.4999C21.7916 13.0999 22.0714 12.984 22.2777 12.7777C22.484 12.5714 22.5999 12.2916 22.5999 11.9999C22.5999 11.7082 22.484 11.4284 22.2777 11.2221C22.0714 11.0158 21.7916 10.8999 21.4999 10.8999Z" fill="#8B95A1" fill-opacity="0.72"/>
<path id="Vector_8" fill-rule="evenodd" clip-rule="evenodd" d="M16.5658 8.53387C16.8468 8.53387 17.1287 8.42687 17.3437 8.21187L19.4948 6.06087C19.6887 5.85208 19.7942 5.5762 19.789 5.29124C19.7838 5.00628 19.6682 4.73445 19.4667 4.53292C19.2652 4.33139 18.9933 4.21587 18.7084 4.21063C18.4234 4.2054 18.1475 4.31088 17.9387 4.50487L15.7887 6.65488C15.635 6.80879 15.5304 7.00478 15.4879 7.21812C15.4455 7.43147 15.4672 7.6526 15.5504 7.85361C15.6335 8.05462 15.7743 8.2265 15.955 8.34757C16.1357 8.46864 16.3482 8.53347 16.5658 8.53387Z" fill="#8B95A1" fill-opacity="0.72"/>
</g>
</g>
</svg>
