<svg width="24" height="24" viewBox="0 0 24 24" fill="none" xmlns="http://www.w3.org/2000/svg">
<g id="icon-refresh-mono">
<path id="Vector" fill-rule="evenodd" clip-rule="evenodd" d="M20.9668 12.3618C20.6533 12.3072 20.331 12.3793 20.0707 12.5624C19.8104 12.7454 19.6335 13.0243 19.5788 13.3378C19.2675 15.1266 18.3339 16.7477 16.943 17.9148C15.5521 19.0819 13.7935 19.7198 11.9778 19.7158C7.72379 19.7158 4.26279 16.2548 4.26279 11.9998C4.26279 7.74577 7.72379 4.28477 11.9778 4.28477C13.9118 4.28477 15.7308 4.99877 17.1528 6.28877L16.1608 7.28077C16.031 7.41006 15.9396 7.57281 15.8969 7.75093C15.8541 7.92905 15.8616 8.11555 15.9185 8.28967C15.9754 8.46379 16.0794 8.61872 16.2192 8.7372C16.3589 8.85568 16.5287 8.93308 16.7098 8.96077L20.9218 9.61077C21.0757 9.63449 21.233 9.62159 21.3809 9.57311C21.5289 9.52462 21.6633 9.44193 21.7733 9.33175C21.8833 9.22156 21.9657 9.08699 22.0139 8.93895C22.0622 8.79092 22.0748 8.6336 22.0508 8.47977L21.4018 4.26877C21.3739 4.08782 21.2964 3.91812 21.178 3.77852C21.0595 3.63891 20.9047 3.53485 20.7307 3.47789C20.5567 3.42092 20.3703 3.41327 20.1922 3.45579C20.0141 3.49831 19.8513 3.58934 19.7218 3.71877L18.8498 4.59177C16.9861 2.84939 14.5291 1.88156 11.9778 1.88477C6.40079 1.88477 1.86279 6.42277 1.86279 11.9998C1.86279 17.5778 6.40079 22.1148 11.9778 22.1148C16.9058 22.1148 21.0958 18.5968 21.9428 13.7498C21.9974 13.4363 21.9252 13.114 21.7422 12.8537C21.5592 12.5934 21.2803 12.4165 20.9668 12.3618Z" fill="#8B95A1"/>
</g>
</svg>
