<svg width="24" height="24" viewBox="0 0 24 24" fill="none" xmlns="http://www.w3.org/2000/svg">
<g id="icon-repeat-mono">
<g id="Group">
<path id="Vector" d="M4.2999 12.3702V11.3602C4.2999 8.57017 6.5699 6.30017 9.3599 6.30017H16.9499L16.3899 6.86017C16.1645 7.0856 16.0378 7.39136 16.0378 7.71017C16.0378 8.02898 16.1645 8.33473 16.3899 8.56017C16.6153 8.7856 16.9211 8.91225 17.2399 8.91225C17.5587 8.91225 17.8645 8.7856 18.0899 8.56017L20.6999 5.95017C20.9199 5.72017 21.0499 5.42017 21.0499 5.10017C21.0499 4.78017 20.9199 4.48017 20.6999 4.25017L18.0899 1.64017C17.9783 1.52854 17.8458 1.44 17.6999 1.37959C17.5541 1.31918 17.3978 1.28809 17.2399 1.28809C17.082 1.28809 16.9257 1.31918 16.7799 1.37959C16.634 1.44 16.5015 1.52854 16.3899 1.64017C16.1645 1.8656 16.0378 2.17136 16.0378 2.49017C16.0378 2.80898 16.1645 3.11473 16.3899 3.34017L16.9499 3.90017H9.3599C5.2499 3.90017 1.8999 7.25017 1.8999 11.3602V12.3702C1.8999 13.0302 2.4399 13.5702 3.0999 13.5702C3.7599 13.5702 4.2999 13.0402 4.2999 12.3702ZM20.8999 10.4302C20.2399 10.4302 19.6999 10.9702 19.6999 11.6302V12.6402C19.6999 15.4302 17.4299 17.7002 14.6399 17.7002H7.0499L7.6099 17.1402C7.83534 16.9147 7.96198 16.609 7.96198 16.2902C7.96198 15.9714 7.83534 15.6656 7.6099 15.4402C7.38447 15.2147 7.07871 15.0881 6.7599 15.0881C6.44109 15.0881 6.13534 15.2147 5.9099 15.4402L3.2999 18.0502C3.0699 18.2702 2.9499 18.5802 2.9499 18.9002C2.9499 19.2202 3.0799 19.5202 3.2999 19.7502L5.9099 22.3602C6.13558 22.5851 6.44125 22.7115 6.7599 22.7115C7.07856 22.7115 7.38422 22.5851 7.6099 22.3602C8.0799 21.8902 8.0799 21.1302 7.6099 20.6602L7.0499 20.1002H14.6399C18.7499 20.1002 22.0999 16.7502 22.0999 12.6402V11.6302C22.0999 10.9602 21.5599 10.4302 20.8999 10.4302Z" fill="#8B95A1"/>
</g>
</g>
</svg>
