<svg width="24" height="24" viewBox="0 0 24 24" fill="none" xmlns="http://www.w3.org/2000/svg">
<g id="icon-scan-mono">
<path id="Vector" fill-rule="evenodd" clip-rule="evenodd" d="M21.9999 10.8999H1.9999C1.70816 10.8999 1.42837 11.0158 1.22208 11.2221C1.01579 11.4284 0.899902 11.7082 0.899902 11.9999C0.899902 12.2916 1.01579 12.5714 1.22208 12.7777C1.42837 12.984 1.70816 13.0999 1.9999 13.0999H21.9999C22.2916 13.0999 22.5714 12.984 22.7777 12.7777C22.984 12.5714 23.0999 12.2916 23.0999 11.9999C23.0999 11.7082 22.984 11.4284 22.7777 11.2221C22.5714 11.0158 22.2916 10.8999 21.9999 10.8999ZM3.9999 9.0999C4.29164 9.0999 4.57143 8.98401 4.77772 8.77772C4.98401 8.57143 5.0999 8.29164 5.0999 7.9999V5.1999C5.0999 5.17338 5.11044 5.14794 5.12919 5.12919C5.14794 5.11044 5.17338 5.0999 5.1999 5.0999H7.9999C8.29164 5.0999 8.57143 4.98401 8.77772 4.77772C8.98401 4.57143 9.0999 4.29164 9.0999 3.9999C9.0999 3.70816 8.98401 3.42837 8.77772 3.22208C8.57143 3.01579 8.29164 2.8999 7.9999 2.8999H5.1999C4.59015 2.9007 4.00559 3.14327 3.57443 3.57443C3.14327 4.0056 2.9007 4.59015 2.8999 5.1999V7.9999C2.8999 8.29164 3.01579 8.57143 3.22208 8.77772C3.42838 8.98401 3.70816 9.0999 3.9999 9.0999ZM7.9999 18.8999H5.1999C5.18677 18.8999 5.17377 18.8973 5.16163 18.8923C5.1495 18.8873 5.13848 18.8799 5.12919 18.8706C5.11991 18.8613 5.11254 18.8503 5.10751 18.8382C5.10249 18.826 5.0999 18.813 5.0999 18.7999V15.9999C5.0999 15.7082 4.98401 15.4284 4.77772 15.2221C4.57143 15.0158 4.29164 14.8999 3.9999 14.8999C3.70816 14.8999 3.42838 15.0158 3.22208 15.2221C3.01579 15.4284 2.8999 15.7082 2.8999 15.9999V18.7999C2.8999 20.0679 3.9319 21.0999 5.1999 21.0999H7.9999C8.29164 21.0999 8.57143 20.984 8.77772 20.7777C8.98401 20.5714 9.0999 20.2916 9.0999 19.9999C9.0999 19.7082 8.98401 19.4284 8.77772 19.2221C8.57143 19.0158 8.29164 18.8999 7.9999 18.8999ZM15.9999 5.0999H18.7999C18.8264 5.0999 18.8519 5.11044 18.8706 5.12919C18.8894 5.14794 18.8999 5.17338 18.8999 5.1999V7.9999C18.8999 8.29164 19.0158 8.57143 19.2221 8.77772C19.4284 8.98401 19.7082 9.0999 19.9999 9.0999C20.2916 9.0999 20.5714 8.98401 20.7777 8.77772C20.984 8.57143 21.0999 8.29164 21.0999 7.9999V5.1999C21.0999 3.9319 20.0679 2.8999 18.7999 2.8999H15.9999C15.7082 2.8999 15.4284 3.01579 15.2221 3.22208C15.0158 3.42837 14.8999 3.70816 14.8999 3.9999C14.8999 4.29164 15.0158 4.57143 15.2221 4.77772C15.4284 4.98401 15.7082 5.0999 15.9999 5.0999ZM19.9999 14.8999C19.8554 14.8999 19.7124 14.9284 19.579 14.9836C19.4455 15.0389 19.3242 15.1199 19.2221 15.2221C19.1199 15.3242 19.0389 15.4455 18.9836 15.579C18.9284 15.7124 18.8999 15.8554 18.8999 15.9999V18.7999C18.8999 18.813 18.8973 18.826 18.8923 18.8382C18.8873 18.8503 18.8799 18.8613 18.8706 18.8706C18.8613 18.8799 18.8503 18.8873 18.8382 18.8923C18.826 18.8973 18.813 18.8999 18.7999 18.8999H15.9999C15.7082 18.8999 15.4284 19.0158 15.2221 19.2221C15.0158 19.4284 14.8999 19.7082 14.8999 19.9999C14.8999 20.2916 15.0158 20.5714 15.2221 20.7777C15.4284 20.984 15.7082 21.0999 15.9999 21.0999H18.7999C20.0679 21.0999 21.0999 20.0679 21.0999 18.7999V15.9999C21.0999 15.7082 20.984 15.4284 20.7777 15.2221C20.5714 15.0158 20.2916 14.8999 19.9999 14.8999Z" fill="currentColor"/>
</g>
</svg>
