<svg width="24" height="24" viewBox="0 0 24 24" fill="none" xmlns="http://www.w3.org/2000/svg">
<g id="icon-search-mono">
<path id="Vector" d="M21.8488 20.1508L17.2418 15.5438C18.3268 14.1058 18.9778 12.3238 18.9778 10.3878C18.9778 5.65183 15.1238 1.79883 10.3888 1.79883C5.6528 1.79983 1.7998 5.65283 1.7998 10.3888C1.7998 15.1238 5.6528 18.9778 10.3888 18.9778C12.3238 18.9778 14.1068 18.3268 15.5448 17.2418L20.1518 21.8488C20.3858 22.0828 20.6928 22.1998 20.9998 22.1998C21.3068 22.1998 21.6138 22.0828 21.8488 21.8478C22.3168 21.3798 22.3168 20.6198 21.8488 20.1508ZM4.1998 10.3888C4.1998 6.97583 6.9758 4.19983 10.3888 4.19983C13.8008 4.19983 16.5768 6.97583 16.5768 10.3878C16.5768 13.7998 13.8008 16.5758 10.3888 16.5758C6.9758 16.5768 4.1998 13.8008 4.1998 10.3888Z" fill="currentColor"/>
</g>
</svg>
