<svg width="24" height="24" viewBox="0 0 24 24" fill="none" xmlns="http://www.w3.org/2000/svg">
<g id="icon-shield-check-mono">
<path id="Vector" d="M21.0998 4.3L12.3998 0.7C12.1998 0.6 11.8998 0.6 11.5998 0.7L2.8998 4.3C2.4998 4.4 2.2998 4.8 2.2998 5.2V13.5C2.2998 17.3 7.0998 21 11.5998 23.3C11.8998 23.4 12.1998 23.4 12.4998 23.3C16.9998 21 21.7998 17.3 21.7998 13.5V5.2C21.6998 4.8 21.4998 4.4 21.0998 4.3ZM17.3998 9.8L11.5998 15.6C11.3998 15.8 11.0998 15.9 10.8998 15.9C10.6998 15.9 10.3998 15.8 10.1998 15.6L6.5998 12C6.1998 11.6 6.1998 10.9 6.5998 10.5C6.9998 10.1 7.6998 10.1 8.0998 10.5L10.8998 13.3L15.9998 8.3C16.3998 7.9 17.0998 7.9 17.4998 8.3C17.8998 8.7 17.8998 9.4 17.3998 9.8Z" fill="currentColor"/>
</g>
</svg>
