<svg width="24" height="24" viewBox="0 0 24 24" fill="none" xmlns="http://www.w3.org/2000/svg">
<g id="icon-shield-user-mono">
<path id="Vector" d="M21.111 4.25912L12.38 0.674121C12.137 0.574121 11.864 0.574121 11.62 0.674121L2.88904 4.25912C2.51404 4.41312 2.26904 4.77812 2.26904 5.18412V13.5191C2.26904 17.3161 7.07204 21.0091 11.552 23.2931C11.834 23.4371 12.166 23.4371 12.447 23.2931C16.927 21.0091 21.73 17.3161 21.73 13.5191V5.18412C21.731 4.77912 21.486 4.41312 21.111 4.25912ZM12 6.49712C13.217 6.49712 14.203 7.48312 14.203 8.70012C14.203 9.91712 13.217 10.9021 12 10.9021C10.783 10.9021 9.79704 9.91612 9.79704 8.69912C9.79704 7.48212 10.783 6.49712 12 6.49712ZM12 16.5031C10.023 16.5031 7.10504 16.2251 7.10504 15.1821C7.10504 14.1391 8.47604 11.8961 12 11.8961C15.524 11.8961 16.895 14.1391 16.895 15.1821C16.895 16.2251 13.977 16.5031 12 16.5031Z" fill="#8B95A1"/>
</g>
</svg>
