<svg width="24" height="24" viewBox="0 0 24 24" fill="none" xmlns="http://www.w3.org/2000/svg">
<g id="icon-shopping-bag-mono">
<path id="Vector" fill-rule="evenodd" clip-rule="evenodd" d="M9.43485 4.48219C9.43564 3.80215 9.70613 3.15019 10.187 2.66934C10.6679 2.18848 11.3198 1.91798 11.9998 1.91719C12.68 1.91798 13.332 2.18844 13.8131 2.66927C14.2941 3.1501 14.5648 3.80206 14.5658 4.48219H9.43584H9.43485ZM21.4658 18.0242L19.5058 5.33019C19.4695 5.09415 19.35 4.8789 19.1688 4.72336C18.9875 4.56783 18.7567 4.48228 18.5178 4.48219H16.3658C16.3645 3.32475 15.9041 2.21511 15.0856 1.39678C14.267 0.578437 13.1573 0.118246 11.9998 0.117188C10.8426 0.118511 9.7331 0.578818 8.91479 1.39713C8.09648 2.21544 7.63617 3.32492 7.63485 4.48219H5.48285C5.24404 4.48228 5.01314 4.56783 4.83193 4.72336C4.65071 4.8789 4.53114 5.09415 4.49485 5.33019L2.53485 18.0242C2.46861 18.4518 2.49572 18.8888 2.6143 19.305C2.73288 19.7212 2.94014 20.1068 3.22183 20.4353C3.50352 20.7638 3.85297 21.0275 4.24619 21.2082C4.63941 21.3889 5.06709 21.4824 5.49985 21.4822H18.5018C18.9346 21.4822 19.3621 21.3886 19.7553 21.2079C20.1484 21.0271 20.4978 20.7634 20.7795 20.4349C21.0611 20.1065 21.2684 19.7209 21.387 19.3048C21.5057 18.8887 21.5329 18.4518 21.4668 18.0242H21.4658Z" fill="#8B95A1"/>
</g>
</svg>
