<svg width="24" height="24" viewBox="0 0 24 24" fill="none" xmlns="http://www.w3.org/2000/svg">
<g id="icon-siren-mono">
<path id="Vector" fill-rule="evenodd" clip-rule="evenodd" d="M22.084 20.0809C21.987 19.5229 21.502 19.1139 20.934 19.1139H20.352V9.87885L20.348 9.62786C20.216 5.13086 16.529 1.52686 12 1.52686C7.388 1.52686 3.647 5.26586 3.647 9.87986V19.1149H3.065C2.498 19.1149 2.013 19.5229 1.915 20.0819L1.5 22.4729H22.5L22.084 20.0809ZM11.1 7.21986C11.1 6.72386 11.503 6.31986 12 6.31986C12.498 6.31986 12.9 6.72386 12.9 7.21986V10.9359C12.9 11.4339 12.498 11.8379 12 11.8379C11.503 11.8379 11.1 11.4339 11.1 10.9359V7.21986ZM12.001 13.3389C12.653 13.3389 13.184 13.8679 13.184 14.5219C13.184 15.1749 12.654 15.7049 12.001 15.7049C11.346 15.7049 10.816 15.1749 10.816 14.5219C10.816 13.8689 11.346 13.3389 12.001 13.3389Z" fill="#8B95A1"/>
</g>
</svg>
