<svg width="24" height="24" viewBox="0 0 24 24" fill="none" xmlns="http://www.w3.org/2000/svg">
<g id="icon-stack-up-square-mono">
<g id="Group">
<path id="Vector" fill-rule="evenodd" clip-rule="evenodd" d="M21.2098 16.1049L19.6768 15.3379L13.5648 18.3939C13.0787 18.636 12.5429 18.7617 11.9998 18.7609C11.4567 18.7616 10.921 18.6359 10.4348 18.3939L4.3228 15.3379L2.7888 16.1049C2.62239 16.1878 2.4824 16.3155 2.38455 16.4736C2.2867 16.6317 2.23486 16.814 2.23486 16.9999C2.23486 17.1858 2.2867 17.3681 2.38455 17.5262C2.4824 17.6843 2.62239 17.812 2.7888 17.8949L11.1058 22.0519C11.3835 22.191 11.6897 22.2634 12.0003 22.2634C12.3109 22.2634 12.6171 22.191 12.8948 22.0519L21.2108 17.8939C21.3769 17.8109 21.5167 17.6832 21.6143 17.5252C21.712 17.3672 21.7637 17.1851 21.7637 16.9994C21.7637 16.8137 21.712 16.6316 21.6143 16.4736C21.5167 16.3156 21.3769 16.1879 21.2108 16.1049" fill="currentColor"/>
<path id="Vector_2" fill-rule="evenodd" clip-rule="evenodd" d="M21.2098 11.1049L19.6768 10.3379L13.5648 13.3939C13.0787 13.636 12.5429 13.7617 11.9998 13.7609C11.4567 13.7616 10.921 13.6359 10.4348 13.3939L4.3228 10.3379L2.7888 11.1049C2.62239 11.1878 2.4824 11.3155 2.38455 11.4736C2.2867 11.6317 2.23486 11.814 2.23486 11.9999C2.23486 12.1858 2.2867 12.3681 2.38455 12.5262C2.4824 12.6843 2.62239 12.812 2.7888 12.8949L11.1058 17.0519C11.3835 17.191 11.6897 17.2634 12.0003 17.2634C12.3109 17.2634 12.6171 17.191 12.8948 17.0519L21.2108 12.8939C21.3769 12.8109 21.5167 12.6832 21.6143 12.5252C21.712 12.3672 21.7637 12.1851 21.7637 11.9994C21.7637 11.8137 21.712 11.6316 21.6143 11.4736C21.5167 11.3156 21.3769 11.1879 21.2108 11.1049" fill="currentColor"/>
<path id="Vector_3" fill-rule="evenodd" clip-rule="evenodd" d="M11.1057 12.0529L2.78973 7.89387C2.62384 7.81073 2.48437 7.68307 2.38689 7.52519C2.28942 7.36731 2.23779 7.18541 2.23779 6.99987C2.23779 6.81432 2.28942 6.63242 2.38689 6.47454C2.48437 6.31666 2.62384 6.189 2.78973 6.10587L11.1057 1.94786C11.3834 1.80876 11.6897 1.73633 12.0002 1.73633C12.3108 1.73633 12.6171 1.80876 12.8947 1.94786L21.2107 6.10587C21.3769 6.1889 21.5166 6.31657 21.6143 6.47456C21.7119 6.63256 21.7637 6.81463 21.7637 7.00037C21.7637 7.1861 21.7119 7.36817 21.6143 7.52617C21.5166 7.68416 21.3769 7.81183 21.2107 7.89487L12.8947 12.0529C12.6168 12.1916 12.3104 12.2638 11.9997 12.2638C11.6891 12.2638 11.3827 12.1916 11.1047 12.0529" fill="currentColor"/>
</g>
</g>
</svg>
