<svg width="24" height="24" viewBox="0 0 24 24" fill="none" xmlns="http://www.w3.org/2000/svg">
<g id="icon-stack-up-mono">
<g id="Group">
<path id="Vector" fill-rule="evenodd" clip-rule="evenodd" d="M12 18.4998C7.879 18.4998 4.397 17.3948 2.377 15.6538C2.138 16.0828 2 16.5328 2 16.9998C2 19.7618 6.478 21.9998 12 21.9998C17.522 21.9998 22 19.7618 22 16.9998C22 16.5328 21.862 16.0828 21.623 15.6538C19.604 17.3948 16.121 18.4998 12 18.4998Z" fill="#8B95A1"/>
<path id="Vector_2" fill-rule="evenodd" clip-rule="evenodd" d="M12 13.4998C7.879 13.4998 4.397 12.3948 2.377 10.6538C2.138 11.0828 2 11.5328 2 11.9998C2 14.7618 6.478 16.9998 12 16.9998C17.522 16.9998 22 14.7618 22 11.9998C22 11.5328 21.862 11.0828 21.623 10.6538C19.604 12.3948 16.121 13.4998 12 13.4998Z" fill="#8B95A1"/>
<path id="Vector_3" fill-rule="evenodd" clip-rule="evenodd" d="M12 12C17.522 12 22 9.762 22 7C22 4.239 17.522 2 12 2C6.478 2 2 4.239 2 7C2 9.762 6.478 12 12 12Z" fill="#8B95A1"/>
</g>
</g>
</svg>
