<svg width="24" height="24" viewBox="0 0 24 24" fill="none" xmlns="http://www.w3.org/2000/svg">
<g id="icon-star-mono">
<path id="Vector" fill-rule="evenodd" clip-rule="evenodd" d="M13.1542 1.92696L15.4812 6.64196C15.6682 7.02096 16.0302 7.28396 16.4492 7.34496L21.6522 8.10096C22.7062 8.25396 23.1282 9.55096 22.3642 10.294L18.5992 13.964C18.45 14.1095 18.3383 14.2891 18.2739 14.4873C18.2094 14.6856 18.1941 14.8965 18.2292 15.102L19.1182 20.284C19.2982 21.335 18.1962 22.135 17.2532 21.64L12.5992 19.193C12.4148 19.0959 12.2095 19.0452 12.0012 19.0452C11.7928 19.0452 11.5876 19.0959 11.4032 19.193L6.74917 21.64C5.80517 22.135 4.70317 21.335 4.88317 20.284L5.77217 15.102C5.80718 14.8965 5.7918 14.6856 5.72735 14.4874C5.66291 14.2892 5.55132 14.1096 5.40217 13.964L1.63717 10.294C0.874172 9.55096 1.29517 8.25396 2.35017 8.10096L7.55217 7.34496C7.97117 7.28396 8.33417 7.02096 8.52117 6.64196L10.8472 1.92696C11.3192 0.970961 12.6822 0.970961 13.1542 1.92696Z" fill="#8B95A1"/>
</g>
</svg>
