<svg width="24" height="24" viewBox="0 0 24 24" fill="none" xmlns="http://www.w3.org/2000/svg">
<g id="icon-store-mono">
<path id="Vector" fill-rule="evenodd" clip-rule="evenodd" d="M21 2.5H3C2.73478 2.5 2.48043 2.60536 2.29289 2.79289C2.10536 2.98043 2 3.23478 2 3.5V5.167H22V3.5C22 3.23478 21.8946 2.98043 21.7071 2.79289C21.5196 2.60536 21.2652 2.5 21 2.5ZM3.176 19.188C3.176 19.8243 3.42872 20.4346 3.87859 20.8847C4.32846 21.3348 4.93865 21.5877 5.575 21.588H10V17.834C10 17.5688 10.1054 17.3144 10.2929 17.1269C10.4804 16.9394 10.7348 16.834 11 16.834H13C13.2652 16.834 13.5196 16.9394 13.7071 17.1269C13.8946 17.3144 14 17.5688 14 17.834V21.587H18.425C19.0613 21.5867 19.6715 21.3338 20.1214 20.8837C20.5713 20.4336 20.824 19.8233 20.824 19.187V11H3.176V19.188ZM2 8.5C2 8.76522 2.10536 9.01957 2.29289 9.20711C2.48043 9.39464 2.73478 9.5 3 9.5H21C21.2652 9.5 21.5196 9.39464 21.7071 9.20711C21.8946 9.01957 22 8.76522 22 8.5V6.833H2V8.5Z" fill="currentColor"/>
</g>
</svg>
