<svg width="24" height="24" viewBox="0 0 24 24" fill="none" xmlns="http://www.w3.org/2000/svg">
<g id="icon-sync-mono">
<path id="Vector" fill-rule="evenodd" clip-rule="evenodd" d="M23.723 10.9402L21.686 8.16019C21.5746 8.00809 21.4289 7.88438 21.2607 7.79911C21.0925 7.71384 20.9066 7.6694 20.718 7.6694C20.5295 7.6694 20.3436 7.71384 20.1754 7.79911C20.0072 7.88438 19.8615 8.00809 19.75 8.16019L17.713 10.9402C17.133 11.7332 17.699 12.8492 18.681 12.8492H19.561C19.4292 14.0244 19.0229 15.1521 18.375 16.1414C17.727 17.1306 16.8556 17.9537 15.831 18.5442C13.53 19.8782 10.581 19.8782 8.27804 18.5442C8.02573 18.4011 7.72712 18.3635 7.44721 18.4395C7.16729 18.5155 6.92873 18.699 6.78344 18.9501C6.63814 19.2011 6.59788 19.4994 6.67141 19.7799C6.74493 20.0605 6.9263 20.3007 7.17604 20.4482C8.65903 21.3073 10.3422 21.7605 12.056 21.7622C13.7691 21.7603 15.4515 21.3075 16.934 20.4492C18.4153 19.5913 19.6461 18.3604 20.504 16.8792C21.213 15.644 21.6424 14.2683 21.762 12.8492H22.755C22.9769 12.8493 23.1944 12.7879 23.3835 12.6718C23.5725 12.5558 23.7257 12.3896 23.826 12.1917C23.9263 11.9938 23.9698 11.772 23.9516 11.5509C23.9334 11.3298 23.8543 11.118 23.723 10.9392M5.54004 11.1522H4.54804C4.66493 10.12 4.99235 9.12279 5.51004 8.2222C6.17583 7.07468 7.13004 6.12116 8.27804 5.4562C10.58 4.1242 13.529 4.1242 15.832 5.4562C16.0847 5.60233 16.385 5.64213 16.6669 5.56683C16.9489 5.49153 17.1894 5.30731 17.3355 5.0547C17.4817 4.80208 17.5215 4.50175 17.4462 4.21979C17.3709 3.93783 17.1867 3.69733 16.934 3.5512C13.962 1.8332 10.147 1.8332 7.17604 3.5512C5.69501 4.40943 4.46427 5.64017 3.60604 7.12119C2.89816 8.35686 2.46881 9.73226 2.34804 11.1512H1.24404C1.02219 11.1511 0.804659 11.2125 0.615602 11.3286C0.426544 11.4446 0.273363 11.6108 0.173075 11.8087C0.0727863 12.0066 0.0293158 12.2284 0.047492 12.4495C0.0656682 12.6706 0.144779 12.8823 0.276038 13.0612L2.42404 15.9932C2.53548 16.1453 2.6812 16.269 2.84938 16.3543C3.01756 16.4396 3.20347 16.484 3.39204 16.484C3.5806 16.484 3.76651 16.4396 3.93469 16.3543C4.10288 16.269 4.2486 16.1453 4.36004 15.9932L6.50804 13.0612C6.6393 12.8823 6.71841 12.6706 6.73659 12.4495C6.75476 12.2284 6.71129 12.0066 6.611 11.8087C6.51071 11.6108 6.35753 11.4446 6.16848 11.3286C5.97942 11.2125 5.76188 11.1511 5.54004 11.1512" fill="#8B95A1"/>
</g>
</svg>
