<svg width="24" height="24" viewBox="0 0 24 24" fill="none" xmlns="http://www.w3.org/2000/svg">
<g id="icon-thumb-up-mono">
<path id="Vector" fill-rule="evenodd" clip-rule="evenodd" d="M4.9538 9.20403C4.44883 9.20403 3.96454 9.40463 3.60747 9.7617C3.2504 10.1188 3.0498 10.6031 3.0498 11.108V19.095C3.0498 20.147 3.9018 21 4.9538 21H6.8838V9.20403H4.9538ZM20.4128 6.99703H15.8708V2.73603C15.871 2.35369 15.745 1.98197 15.5123 1.67858C15.2797 1.37519 14.9534 1.1571 14.584 1.05816C14.2147 0.959217 13.8231 0.984966 13.4699 1.13141C13.1167 1.27785 12.8218 1.53679 12.6308 1.86803L8.3948 9.20403H8.3838V21H17.6178C18.4692 21 19.296 20.7148 19.9663 20.1899C20.6366 19.665 21.1117 18.9306 21.3158 18.104L23.1858 10.54C23.2899 10.1192 23.2969 9.68016 23.2061 9.25622C23.1154 8.83228 22.9294 8.43455 22.6622 8.09315C22.395 7.75175 22.0536 7.47564 21.6639 7.28573C21.2742 7.09582 20.8463 6.99709 20.4128 6.99703Z" fill="#8B95A1"/>
</g>
</svg>
