<svg width="24" height="24" viewBox="0 0 24 24" fill="none" xmlns="http://www.w3.org/2000/svg">
<g id="icon-twinkle-circle-mono">
<path id="Vector" fill-rule="evenodd" clip-rule="evenodd" d="M18 12.5L15.8 13.2C14.6 13.6 13.7 14.5 13.3 15.7L12.5 18C12.3 18.5 11.7 18.5 11.6 18L10.9 15.8C10.5 14.6 9.6 13.7 8.4 13.3L6 12.5C5.5 12.3 5.5 11.7 6 11.6L8.2 10.9C9.4 10.5 10.3 9.6 10.7 8.4L11.5 6C11.7 5.5 12.3 5.5 12.4 6L13.1 8.2C13.5 9.4 14.4 10.3 15.6 10.7L17.8 11.4C18.5 11.7 18.5 12.3 18 12.5ZM12 1C5.9 1 1 5.9 1 12C1 18.1 5.9 23 12 23C18.1 23 23 18.1 23 12C23 5.9 18.1 1 12 1Z" fill="currentColor"/>
</g>
</svg>
