<svg width="24" height="24" viewBox="0 0 24 24" fill="none" xmlns="http://www.w3.org/2000/svg">
<g id="icon-umbrella-mono">
<path id="Vector" fill-rule="evenodd" clip-rule="evenodd" d="M12 2.25977C6.29698 2.25977 1.60798 6.59976 1.05498 12.1568C1.04146 12.2964 1.05728 12.4373 1.10142 12.5704C1.14557 12.7035 1.21707 12.826 1.31133 12.9298C1.40559 13.0337 1.52054 13.1167 1.64877 13.1735C1.77701 13.2303 1.91572 13.2597 2.05598 13.2598H11.257V19.8068C11.2491 20.0488 11.1473 20.2783 10.9733 20.4467C10.7993 20.6151 10.5666 20.7092 10.3245 20.7092C10.0823 20.7092 9.84965 20.6151 9.67564 20.4467C9.50163 20.2783 9.39991 20.0488 9.39198 19.8068C9.38046 19.5493 9.27007 19.3062 9.0838 19.128C8.89752 18.9499 8.64972 18.8505 8.39198 18.8505C8.13424 18.8505 7.88644 18.9499 7.70016 19.128C7.51389 19.3062 7.4035 19.5493 7.39198 19.8068C7.39278 20.5841 7.70194 21.3294 8.25162 21.8791C8.80131 22.4288 9.54661 22.738 10.324 22.7388C11.1014 22.738 11.8469 22.4288 12.3967 21.8792C12.9465 21.3295 13.2559 20.5842 13.257 19.8068V13.2598H21.944C22.537 13.2598 23.004 12.7468 22.945 12.1568C22.393 6.59976 17.703 2.25977 12 2.25977Z" fill="#8B95A1"/>
</g>
</svg>
