<svg width="24" height="24" viewBox="0 0 24 24" fill="none" xmlns="http://www.w3.org/2000/svg">
<g id="icon-user-check-mono">
<path id="Vector" fill-rule="evenodd" clip-rule="evenodd" d="M23.4359 8.45505C23.3524 8.37144 23.2531 8.30512 23.1439 8.25988C23.0347 8.21463 22.9177 8.19134 22.7994 8.19134C22.6812 8.19134 22.5642 8.21463 22.455 8.25988C22.3457 8.30512 22.2465 8.37144 22.1629 8.45505L18.9819 11.637L17.4359 10.091C17.2671 9.92224 17.0382 9.8274 16.7994 9.8274C16.5607 9.8274 16.3318 9.92224 16.1629 10.091C15.9941 10.2599 15.8993 10.4888 15.8993 10.7275C15.8993 10.9663 15.9941 11.1952 16.1629 11.364L18.9809 14.182L23.4349 9.72805C23.5185 9.64447 23.5849 9.54524 23.6301 9.43603C23.6754 9.32682 23.6987 9.20976 23.6987 9.09155C23.6987 8.97333 23.6754 8.85628 23.6301 8.74706C23.5849 8.63785 23.5185 8.53862 23.4349 8.45505M9.99995 11.456C11.1547 11.456 12.2622 10.9973 13.0787 10.1808C13.8952 9.36426 14.3539 8.2568 14.3539 7.10205C14.3539 5.94729 13.8952 4.83984 13.0787 4.0233C12.2622 3.20677 11.1547 2.74805 9.99995 2.74805C8.84519 2.74805 7.73774 3.20677 6.9212 4.0233C6.10467 4.83984 5.64595 5.94729 5.64595 7.10205C5.64595 8.2568 6.10467 9.36426 6.9212 10.1808C7.73774 10.9973 8.84519 11.456 9.99995 11.456ZM9.99995 12.788C3.73095 12.788 1.29395 16.777 1.29395 18.633C1.29395 20.488 6.48295 20.982 9.99995 20.982C13.5169 20.982 18.7059 20.488 18.7059 18.632C18.7059 16.777 16.2689 12.788 9.99995 12.788Z" fill="#8B95A1"/>
</g>
</svg>
