<svg width="24" height="24" viewBox="0 0 24 24" fill="none" xmlns="http://www.w3.org/2000/svg">
<g id="icon-user-mono">
<path id="Vector" fill-rule="evenodd" clip-rule="evenodd" d="M16.8872 6.64401C16.8872 7.28683 16.7607 7.92337 16.5148 8.51729C16.2688 9.1112 15.9083 9.65086 15.4538 10.1054C14.9993 10.56 14.4597 10.9207 13.8659 11.1667C13.272 11.4128 12.6355 11.5394 11.9927 11.5395C10.6944 11.5396 9.44932 11.024 8.53124 10.1062C7.61315 9.18826 7.0973 7.94325 7.09717 6.64501C7.09711 6.00219 7.22365 5.36565 7.46959 4.77174C7.71553 4.17782 8.07603 3.63817 8.53053 3.18358C9.44843 2.26549 10.6934 1.74964 11.9917 1.74951C13.2899 1.74938 14.535 2.26497 15.4531 3.18287C16.3712 4.10077 16.887 5.34578 16.8872 6.64401ZM11.9922 13.037C4.94317 13.037 2.20117 17.523 2.20117 19.61C2.20117 21.696 8.03817 22.252 11.9922 22.252C15.9462 22.252 21.7832 21.696 21.7832 19.61C21.7832 17.523 19.0412 13.037 11.9922 13.037Z" fill="currentColor"/>
</g>
</svg>
