<svg width="24" height="24" viewBox="0 0 24 24" fill="none" xmlns="http://www.w3.org/2000/svg">
<g id="icon-user-square-mono">
<path id="Vector" fill-rule="evenodd" clip-rule="evenodd" d="M11.992 17.892C9.77 17.892 6.492 17.58 6.492 16.408C6.492 15.236 8.032 12.716 11.992 12.716C15.952 12.716 17.492 15.236 17.492 16.408C17.492 17.58 14.214 17.892 11.992 17.892ZM11.992 6.116C12.7213 6.116 13.4208 6.40573 13.9365 6.92146C14.4523 7.43718 14.742 8.13665 14.742 8.866C14.742 9.59535 14.4523 10.2948 13.9365 10.8105C13.4208 11.3263 12.7213 11.616 11.992 11.616C11.2627 11.616 10.5632 11.3263 10.0475 10.8105C9.53173 10.2948 9.242 9.59535 9.242 8.866C9.242 8.13665 9.53173 7.43718 10.0475 6.92146C10.5632 6.40573 11.2627 6.116 11.992 6.116ZM19.5 2.5H4.5C3.96957 2.5 3.46086 2.71071 3.08579 3.08579C2.71071 3.46086 2.5 3.96957 2.5 4.5V19.5C2.5 20.0304 2.71071 20.5391 3.08579 20.9142C3.46086 21.2893 3.96957 21.5 4.5 21.5H19.5C20.0304 21.5 20.5391 21.2893 20.9142 20.9142C21.2893 20.5391 21.5 20.0304 21.5 19.5V4.5C21.5 3.96957 21.2893 3.46086 20.9142 3.08579C20.5391 2.71071 20.0304 2.5 19.5 2.5Z" fill="currentColor"/>
</g>
</svg>
