<svg width="24" height="24" viewBox="0 0 24 24" fill="none" xmlns="http://www.w3.org/2000/svg">
<g id="icon-user-two-mono">
<g id="Group">
<path id="Vector" fill-rule="evenodd" clip-rule="evenodd" d="M7.5 11.647C7.99246 11.647 8.48009 11.55 8.93506 11.3615C9.39003 11.1731 9.80343 10.8968 10.1517 10.5486C10.4999 10.2004 10.7761 9.78701 10.9645 9.33204C11.153 8.87706 11.25 8.38943 11.25 7.89697C11.25 7.40452 11.153 6.91688 10.9645 6.46191C10.7761 6.00694 10.4999 5.59354 10.1517 5.24532C9.80343 4.8971 9.39003 4.62088 8.93506 4.43242C8.48009 4.24397 7.99246 4.14697 7.5 4.14697C6.50544 4.14697 5.55161 4.54206 4.84835 5.24532C4.14509 5.94858 3.75 6.90241 3.75 7.89697C3.75 8.89153 4.14509 9.84536 4.84835 10.5486C5.55161 11.2519 6.50544 11.647 7.5 11.647ZM8 17.828C8 16.564 8.771 14.693 10.48 13.276C9.637 12.979 8.652 12.793 7.5 12.793C2.46 12.793 0.5 16.231 0.5 17.828C0.5 19.428 4.673 19.852 7.5 19.852C7.971 19.852 8.48 19.839 9.001 19.812C8.34 19.285 8 18.625 8 17.828Z" fill="#8B95A1" fill-opacity="0.72"/>
<path id="Vector_2" fill-rule="evenodd" clip-rule="evenodd" d="M16.5 12.794C11.46 12.794 9.5 16.231 9.5 17.829C9.5 19.427 13.673 19.853 16.5 19.853C19.327 19.853 23.5 19.427 23.5 17.829C23.5 16.231 21.54 12.794 16.5 12.794ZM16.5 11.647C16.9925 11.647 17.4801 11.55 17.9351 11.3615C18.39 11.1731 18.8034 10.8968 19.1517 10.5486C19.4999 10.2004 19.7761 9.78701 19.9645 9.33204C20.153 8.87706 20.25 8.38943 20.25 7.89697C20.25 7.40452 20.153 6.91688 19.9645 6.46191C19.7761 6.00694 19.4999 5.59354 19.1517 5.24532C18.8034 4.8971 18.39 4.62088 17.9351 4.43242C17.4801 4.24397 16.9925 4.14697 16.5 4.14697C15.5054 4.14697 14.5516 4.54206 13.8483 5.24532C13.1451 5.94858 12.75 6.90241 12.75 7.89697C12.75 8.89153 13.1451 9.84536 13.8483 10.5486C14.5516 11.2519 15.5054 11.647 16.5 11.647Z" fill="#8B95A1"/>
</g>
</g>
</svg>
