<svg width="24" height="24" viewBox="0 0 24 24" fill="none" xmlns="http://www.w3.org/2000/svg">
<g id="icon-user-blocked-mono">
<path id="Vector" fill-rule="evenodd" clip-rule="evenodd" d="M20.2729 10L21.7569 8.51505C21.8435 8.4322 21.9126 8.3329 21.9603 8.22297C22.008 8.11305 22.0332 7.99472 22.0345 7.87491C22.0359 7.75511 22.0133 7.63624 21.968 7.52529C21.9228 7.41434 21.8559 7.31353 21.7712 7.22877C21.6865 7.14402 21.5858 7.07703 21.4749 7.03173C21.3639 6.98643 21.2451 6.96373 21.1253 6.96497C21.0055 6.9662 20.8871 6.99135 20.7772 7.03893C20.6672 7.08651 20.5679 7.15556 20.4849 7.24205L18.9999 8.72705L17.5149 7.24205C17.3438 7.08517 17.1187 7.00043 16.8866 7.00548C16.6544 7.01053 16.4332 7.10499 16.2691 7.26916C16.1049 7.43333 16.0104 7.65454 16.0054 7.88666C16.0003 8.11878 16.0851 8.34389 16.2419 8.51505L17.7269 10L16.2419 11.485C16.1584 11.5686 16.0921 11.6679 16.0468 11.7771C16.0016 11.8863 15.9783 12.0033 15.9783 12.1215C15.9783 12.2398 16.0016 12.3568 16.0468 12.466C16.0921 12.5752 16.1584 12.6745 16.2419 12.758C16.3255 12.8416 16.4248 12.9079 16.534 12.9532C16.6432 12.9984 16.7602 13.0217 16.8784 13.0217C16.9967 13.0217 17.1137 12.9984 17.2229 12.9532C17.3321 12.9079 17.4314 12.8416 17.5149 12.758L18.9999 11.273L20.4849 12.758C20.655 12.9208 20.882 13.0105 21.1173 13.0079C21.3526 13.0052 21.5776 12.9106 21.744 12.7441C21.9103 12.5776 22.0048 12.3525 22.0073 12.1172C22.0097 11.8819 21.9198 11.6549 21.7569 11.485L20.2729 10ZM9.99995 11.456C11.1547 11.456 12.2622 10.9973 13.0787 10.1808C13.8952 9.36426 14.3539 8.2568 14.3539 7.10205C14.3539 5.94729 13.8952 4.83984 13.0787 4.0233C12.2622 3.20677 11.1547 2.74805 9.99995 2.74805C8.84519 2.74805 7.73774 3.20677 6.9212 4.0233C6.10467 4.83984 5.64595 5.94729 5.64595 7.10205C5.64595 8.2568 6.10467 9.36426 6.9212 10.1808C7.73774 10.9973 8.84519 11.456 9.99995 11.456ZM9.99995 12.788C3.73095 12.788 1.29395 16.777 1.29395 18.633C1.29395 20.488 6.48295 20.982 9.99995 20.982C13.5169 20.982 18.7059 20.488 18.7059 18.632C18.7059 16.777 16.2689 12.788 9.99995 12.788Z" fill="currentColor"/>
</g>
</svg>
