<svg width="24" height="24" viewBox="0 0 24 24" fill="none" xmlns="http://www.w3.org/2000/svg">
<g id="icon-user-plus-mono">
<path id="Vector" fill-rule="evenodd" clip-rule="evenodd" d="M22.9999 10.1H20.8999V8.00005C20.8922 7.76668 20.794 7.54546 20.6261 7.38313C20.4583 7.22079 20.2339 7.13004 20.0004 7.13004C19.7669 7.13004 19.5426 7.22079 19.3747 7.38313C19.2069 7.54546 19.1087 7.76668 19.1009 8.00005V10.1H16.9999C16.7613 10.1 16.5323 10.1949 16.3635 10.3637C16.1948 10.5324 16.0999 10.7614 16.0999 11C16.0999 11.2387 16.1948 11.4677 16.3635 11.6364C16.5323 11.8052 16.7613 11.9 16.9999 11.9H19.1009V14C19.0969 14.1207 19.1172 14.2409 19.1606 14.3536C19.204 14.4662 19.2696 14.569 19.3535 14.6557C19.4375 14.7425 19.538 14.8115 19.6491 14.8586C19.7603 14.9058 19.8797 14.93 20.0004 14.93C20.1212 14.93 20.2406 14.9058 20.3518 14.8586C20.4629 14.8115 20.5634 14.7425 20.6474 14.6557C20.7313 14.569 20.7969 14.4662 20.8403 14.3536C20.8837 14.2409 20.904 14.1207 20.8999 14V11.9H22.9999C23.2386 11.9 23.4676 11.8052 23.6363 11.6364C23.8051 11.4677 23.8999 11.2387 23.8999 11C23.8999 10.7614 23.8051 10.5324 23.6363 10.3637C23.4676 10.1949 23.2386 10.1 22.9999 10.1ZM9.99995 11.456C11.1547 11.456 12.2622 10.9973 13.0787 10.1808C13.8952 9.36426 14.3539 8.2568 14.3539 7.10205C14.3539 5.94729 13.8952 4.83984 13.0787 4.0233C12.2622 3.20677 11.1547 2.74805 9.99995 2.74805C8.84519 2.74805 7.73774 3.20677 6.9212 4.0233C6.10467 4.83984 5.64595 5.94729 5.64595 7.10205C5.64595 8.2568 6.10467 9.36426 6.9212 10.1808C7.73774 10.9973 8.84519 11.456 9.99995 11.456ZM9.99995 12.788C3.73095 12.788 1.29395 16.777 1.29395 18.633C1.29395 20.488 6.48295 20.982 9.99995 20.982C13.5169 20.982 18.7059 20.488 18.7059 18.632C18.7059 16.777 16.2689 12.788 9.99995 12.788Z" fill="#8B95A1"/>
</g>
</svg>
