<svg width="24" height="24" viewBox="0 0 24 24" fill="none" xmlns="http://www.w3.org/2000/svg">
<g id="icon-warning-triangle-mono">
<path id="Vector" fill-rule="evenodd" clip-rule="evenodd" d="M12.0002 19.191C11.8426 19.191 11.6865 19.16 11.5409 19.0997C11.3953 19.0394 11.2631 18.951 11.1516 18.8395C11.0402 18.7281 10.9518 18.5958 10.8915 18.4502C10.8312 18.3046 10.8002 18.1486 10.8002 17.991C10.8002 17.8334 10.8312 17.6774 10.8915 17.5318C10.9518 17.3862 11.0402 17.2539 11.1516 17.1425C11.2631 17.0311 11.3953 16.9427 11.5409 16.8824C11.6865 16.8221 11.8426 16.791 12.0002 16.791C12.3184 16.791 12.6236 16.9174 12.8487 17.1425C13.0737 17.3675 13.2002 17.6728 13.2002 17.991C13.2002 18.3093 13.0737 18.6145 12.8487 18.8395C12.6236 19.0646 12.3184 19.191 12.0002 19.191ZM11.0002 9.20801C11.0002 8.9428 11.1055 8.68844 11.293 8.50091C11.4806 8.31337 11.7349 8.20801 12.0002 8.20801C12.2654 8.20801 12.5197 8.31337 12.7073 8.50091C12.8948 8.68844 13.0002 8.9428 13.0002 9.20801V14.208C13.0002 14.4732 12.8948 14.7276 12.7073 14.9151C12.5197 15.1027 12.2654 15.208 12.0002 15.208C11.7349 15.208 11.4806 15.1027 11.293 14.9151C11.1055 14.7276 11.0002 14.4732 11.0002 14.208V9.20801ZM22.9142 18.815L14.0792 3.51201C13.1552 1.91201 10.8451 1.91201 9.92115 3.51201L1.08615 18.815C0.16315 20.415 1.31615 22.415 3.16515 22.415H20.8351C22.6831 22.415 23.8372 20.415 22.9142 18.815Z" fill="#8B95A1"/>
</g>
</svg>
