<svg width="24" height="24" viewBox="0 0 24 24" fill="none" xmlns="http://www.w3.org/2000/svg">
<g id="icon-wifi-mono">
<g id="Group">
<path id="Vector" fill-rule="evenodd" clip-rule="evenodd" d="M10.4998 18.8602C10.5 19.0573 10.5389 19.2525 10.6145 19.4346C10.69 19.6166 10.8007 19.782 10.9402 19.9213C11.0796 20.0606 11.2452 20.171 11.4273 20.2463C11.6095 20.3217 11.8047 20.3604 12.0018 20.3602C12.1989 20.3601 12.3941 20.3211 12.5762 20.2456C12.7582 20.17 12.9236 20.0594 13.0629 19.9199C13.2022 19.7804 13.3126 19.6149 13.388 19.4327C13.4633 19.2505 13.502 19.0553 13.5018 18.8582C13.5017 18.4601 13.3434 18.0784 13.0618 17.797C12.7803 17.5156 12.3984 17.3576 12.0003 17.3577C11.6022 17.3579 11.2205 17.5161 10.9391 17.7977C10.6577 18.0793 10.4997 18.4611 10.4998 18.8592M22.1118 9.99822C21.8008 9.99822 21.4908 9.88322 21.2488 9.65222C18.7595 7.27031 15.4452 5.94373 11.9998 5.95022C8.55483 5.94399 5.24094 7.27055 2.75183 9.65222C2.51194 9.8811 2.19095 10.0053 1.85948 9.99753C1.52801 9.98975 1.21321 9.85061 0.984328 9.61072C0.755446 9.37083 0.631234 9.04985 0.639017 8.71838C0.6468 8.38691 0.78594 8.0721 1.02583 7.84322C3.97937 5.01683 7.91182 3.44263 11.9998 3.45022C16.1058 3.45022 20.0038 5.01022 22.9728 7.84322C23.1537 8.01552 23.2787 8.23805 23.3319 8.4821C23.3851 8.72616 23.3639 8.98055 23.2712 9.21246C23.1784 9.44438 23.0183 9.64318 22.8115 9.78324C22.6046 9.92329 22.3606 9.99817 22.1108 9.99822" fill="currentColor"/>
<path id="Vector_2" fill-rule="evenodd" clip-rule="evenodd" d="M18.7436 13.3665C18.4386 13.3665 18.1326 13.2555 17.8916 13.0305C16.2934 11.5371 14.1869 10.7077 11.9996 10.7105C9.81236 10.708 7.706 11.5374 6.10762 13.0305C5.86495 13.2564 5.54245 13.3767 5.21108 13.3649C4.8797 13.3531 4.56659 13.2101 4.34062 12.9675C4.11466 12.7248 3.99435 12.4023 4.00617 12.0709C4.01798 11.7395 4.16095 11.4264 4.40362 11.2005C6.46418 9.27555 9.17984 8.20659 11.9996 8.21046C14.8286 8.21046 17.5266 9.27346 19.5956 11.2005C19.7793 11.3717 19.9072 11.5943 19.9627 11.8393C20.0181 12.0842 19.9985 12.3402 19.9065 12.5739C19.8145 12.8075 19.6543 13.0081 19.4467 13.1495C19.2391 13.2908 18.9938 13.3664 18.7426 13.3665" fill="currentColor"/>
<path id="Vector_3" fill-rule="evenodd" clip-rule="evenodd" d="M15.4338 16.6753C15.1418 16.6753 14.8488 16.5733 14.6118 16.3653C13.1658 15.1013 10.8338 15.1013 9.38878 16.3653C9.26588 16.4773 9.12187 16.5636 8.96519 16.6192C8.80851 16.6749 8.64231 16.6987 8.47631 16.6893C8.31031 16.6799 8.14785 16.6375 7.99844 16.5646C7.84903 16.4916 7.71568 16.3896 7.60619 16.2645C7.49669 16.1394 7.41326 15.9936 7.36078 15.8359C7.3083 15.6781 7.28782 15.5115 7.30054 15.3457C7.31326 15.1799 7.35892 15.0183 7.43486 14.8704C7.5108 14.7225 7.61548 14.5912 7.74278 14.4843C8.92113 13.4525 10.4341 12.8838 12.0003 12.8838C13.5665 12.8838 15.0794 13.4525 16.2578 14.4843C16.449 14.6519 16.5845 14.8737 16.6463 15.1203C16.7081 15.3669 16.6933 15.6265 16.6037 15.8645C16.5142 16.1024 16.3543 16.3074 16.1452 16.4521C15.9362 16.5968 15.688 16.6743 15.4338 16.6743" fill="currentColor"/>
</g>
</g>
</svg>
