<svg width="24" height="24" viewBox="0 0 24 24" fill="none" xmlns="http://www.w3.org/2000/svg">
<g id="icon-x-circle-mono">
<path id="Vector" fill-rule="evenodd" clip-rule="evenodd" d="M16.207 14.793C16.2998 14.8858 16.3735 14.9961 16.4237 15.1174C16.474 15.2387 16.4998 15.3687 16.4998 15.5C16.4998 15.6313 16.474 15.7613 16.4237 15.8826C16.3735 16.0039 16.2998 16.1142 16.207 16.207C16.1142 16.2998 16.0039 16.3735 15.8826 16.4237C15.7613 16.474 15.6313 16.4998 15.5 16.4998C15.3687 16.4998 15.2387 16.474 15.1174 16.4237C14.9961 16.3735 14.8858 16.2998 14.793 16.207L12 13.414L9.207 16.207C9.11435 16.3002 9.00419 16.3741 8.88285 16.4246C8.76152 16.4751 8.63141 16.501 8.5 16.501C8.36859 16.501 8.23848 16.4751 8.11715 16.4246C7.99581 16.3741 7.88565 16.3002 7.793 16.207C7.70005 16.1142 7.62632 16.004 7.57601 15.8827C7.5257 15.7614 7.4998 15.6313 7.4998 15.5C7.4998 15.3687 7.5257 15.2386 7.57601 15.1173C7.62632 14.996 7.70005 14.8858 7.793 14.793L10.586 12L7.793 9.207C7.70016 9.11415 7.62651 9.00393 7.57626 8.88263C7.52601 8.76132 7.50015 8.6313 7.50015 8.5C7.50015 8.3687 7.52601 8.23868 7.57626 8.11737C7.62651 7.99607 7.70016 7.88584 7.793 7.793C7.88584 7.70016 7.99607 7.62651 8.11737 7.57626C8.23868 7.52601 8.3687 7.50015 8.5 7.50015C8.6313 7.50015 8.76132 7.52601 8.88263 7.57626C9.00393 7.62651 9.11415 7.70016 9.207 7.793L12 10.586L14.793 7.793C14.8858 7.70016 14.9961 7.62651 15.1174 7.57626C15.2387 7.52601 15.3687 7.50015 15.5 7.50015C15.6313 7.50015 15.7613 7.52601 15.8826 7.57626C16.0039 7.62651 16.1142 7.70016 16.207 7.793C16.2998 7.88584 16.3735 7.99607 16.4237 8.11737C16.474 8.23868 16.4998 8.3687 16.4998 8.5C16.4998 8.6313 16.474 8.76132 16.4237 8.88263C16.3735 9.00393 16.2998 9.11415 16.207 9.207L13.414 12L16.207 14.793ZM12 1C5.925 1 1 5.925 1 12C1 18.075 5.925 23 12 23C18.075 23 23 18.075 23 12C23 5.925 18.075 1 12 1Z" fill="currentColor"/>
</g>
</svg>
