<svg width="24" height="24" viewBox="0 0 24 24" fill="none" xmlns="http://www.w3.org/2000/svg">
<g id="icon-zoom-in-mono">
<g id="Group">
<path id="Vector" d="M4.6002 9.1002H2.2002V5.4002C2.2002 3.6002 3.6002 2.2002 5.4002 2.2002H9.2002V4.6002H5.4002C5.0002 4.6002 4.6002 5.0002 4.6002 5.4002V9.1002ZM9.1002 21.8002H5.4002C3.6002 21.8002 2.2002 20.4002 2.2002 18.6002V14.8002H4.6002V18.6002C4.6002 19.0002 5.0002 19.4002 5.4002 19.4002H9.2002V21.8002H9.1002ZM18.6002 21.8002H14.8002V19.4002H18.6002C19.0002 19.4002 19.4002 19.0002 19.4002 18.6002V14.8002H21.8002V18.6002C21.8002 20.4002 20.4002 21.8002 18.6002 21.8002ZM21.8002 9.1002H19.4002V5.4002C19.4002 5.0002 19.0002 4.6002 18.6002 4.6002H14.8002V2.2002H18.6002C20.4002 2.2002 21.8002 3.6002 21.8002 5.4002V9.1002Z" fill="currentColor"/>
</g>
</g>
</svg>
